M48
; DRILL file {KiCad 7.0.9} date Mon Jan 15 17:26:02 2024
; FORMAT={-:-/ absolute / metric / decimal}
; #@! TF.CreationDate,2024-01-15T17:26:02-08:00
; #@! TF.GenerationSoftware,Kicad,Pcbnew,7.0.9
; #@! TF.FileFunction,Plated,1,2,PTH
FMAT,2
METRIC
; #@! TA.AperFunction,Plated,PTH,ViaDrill
T1C0.400
; #@! TA.AperFunction,Plated,PTH,ComponentDrill
T2C0.400
; #@! TA.AperFunction,Plated,PTH,ComponentDrill
T3C0.600
; #@! TA.AperFunction,Plated,PTH,ComponentDrill
T4C0.762
; #@! TA.AperFunction,Plated,PTH,ComponentDrill
T5C0.800
; #@! TA.AperFunction,Plated,PTH,ComponentDrill
T6C0.900
; #@! TA.AperFunction,Plated,PTH,ComponentDrill
T7C1.000
%
G90
G05
T1
X91.065Y-89.555
X91.075Y-93.075
X91.88Y-153.15
X92.825Y-86.075
X94.55Y-82.55
X94.575Y-89.575
X94.585Y-93.095
X95.38Y-149.64
X95.38Y-153.15
X95.38Y-156.65
X96.3Y-79.05
X98.075Y-93.075
X98.88Y-153.15
X99.75Y-72.0
X99.75Y-75.5
X99.775Y-79.025
X103.225Y-68.5
X103.225Y-72.0
X103.225Y-75.5
X103.49Y-101.96
X103.49Y-105.49
X103.49Y-108.99
X103.5Y-116.0
X103.5Y-119.5
X103.5Y-123.0
X103.5Y-126.5
X103.5Y-133.5
X103.5Y-137.0
X103.5Y-140.5
X103.5Y-144.0
X105.41Y-146.48
X105.862Y-80.462
X106.09Y-156.85
X106.725Y-68.5
X106.725Y-72.0
X106.843Y-89.02
X107.0Y-119.5
X107.0Y-123.0
X107.0Y-126.5
X107.0Y-130.0
X107.0Y-133.5
X107.0Y-137.0
X107.0Y-140.5
X107.87Y-151.76
X109.19Y-147.15
X109.227Y-90.347
X109.825Y-87.025
X110.2Y-65.0
X110.2Y-68.5
X110.2Y-72.0
X110.33Y-147.15
X110.5Y-123.0
X110.5Y-126.5
X110.5Y-130.0
X110.5Y-133.5
X111.1Y-143.4
X111.37Y-141.73
X112.2Y-147.641
X112.55Y-84.8
X113.35Y-135.825
X113.675Y-65.0
X113.675Y-68.5
X113.675Y-72.0
X113.829Y-109.369
X113.839Y-112.889
X114.35Y-79.75
X114.82Y-82.87
X115.524Y-122.2
X115.54Y-81.2
X115.97Y-110.68
X115.986Y-124.34
X116.03Y-105.514
X116.607Y-79.25
X116.83Y-104.15
X116.93Y-81.16
X117.175Y-64.975
X117.2Y-61.5
X117.924Y-150.211
X117.94Y-149.1
X117.95Y-148.02
X117.97Y-146.71
X118.25Y-140.62
X118.34Y-112.87
X118.35Y-116.39
X118.92Y-150.13
X119.265Y-140.525
X119.368Y-80.643
X119.78Y-79.124
X119.79Y-149.06
X119.85Y-154.88
X120.49Y-140.56
X120.7Y-61.5
X121.18Y-86.01
X121.66Y-140.55
X121.73Y-75.95
X122.57Y-148.96
X122.625Y-144.95
X122.777Y-85.078
X122.89Y-140.48
X123.35Y-147.131
X123.36Y-151.37
X123.36Y-154.88
X123.5Y-59.575
X123.5Y-63.075
X123.74Y-79.46
X123.875Y-132.225
X124.026Y-140.419
X124.34Y-130.84
X124.35Y-91.37
X124.36Y-87.88
X124.36Y-115.88
X124.37Y-112.39
X125.034Y-82.057
X125.32Y-140.439
X125.5Y-67.725
X125.9Y-72.31
X126.125Y-132.425
X126.29Y-126.52
X126.625Y-123.84
X126.64Y-140.58
X126.86Y-154.87
X127.0Y-59.575
X127.0Y-63.075
X127.75Y-140.58
X127.802Y-141.678
X127.83Y-130.82
X127.84Y-91.35
X127.84Y-124.84
X127.85Y-87.86
X127.85Y-115.86
X127.86Y-112.37
X128.5Y-67.725
X128.784Y-141.862
X129.28Y-142.73
X129.7Y-146.58
X129.99Y-80.495
X130.0Y-76.11
X130.075Y-132.475
X130.082Y-151.005
X130.355Y-126.535
X130.5Y-59.575
X130.5Y-63.075
X130.549Y-140.449
X130.8Y-125.18
X130.97Y-130.83
X131.06Y-151.38
X131.35Y-119.4
X131.36Y-91.38
X131.37Y-87.89
X131.37Y-115.89
X131.38Y-112.4
X132.071Y-140.534
X132.19Y-153.225
X132.31Y-156.19
X132.4Y-149.19
X132.41Y-154.79
X132.65Y-132.7
X132.65Y-142.875
X132.66Y-146.68
X132.665Y-116.97
X132.675Y-144.15
X132.675Y-145.425
X133.0Y-61.35
X133.96Y-76.18
X134.47Y-109.02
X134.82Y-94.87
X134.84Y-91.37
X134.85Y-87.88
X134.87Y-84.35
X135.1Y-137.63
X135.349Y-134.675
X136.08Y-81.92
X136.399Y-146.9
X136.475Y-64.875
X136.5Y-61.35
X136.56Y-105.33
X136.6Y-98.36
X136.71Y-142.18
X138.32Y-94.85
X138.37Y-84.37
X138.37Y-87.88
X138.83Y-154.774
X138.9Y-157.62
X139.2Y-137.52
X139.225Y-130.2
X139.275Y-132.525
X139.65Y-115.92
X139.68Y-119.42
X139.71Y-122.94
X139.975Y-68.4
X140.0Y-64.875
X141.35Y-94.675
X141.35Y-95.775
X141.4Y-81.35
X141.83Y-91.34
X141.85Y-87.87
X143.18Y-119.42
X143.22Y-115.97
X143.5Y-64.875
X143.5Y-68.4
X143.525Y-71.925
X143.525Y-79.625
X144.547Y-153.525
X147.0Y-68.4
X147.0Y-75.45
X147.025Y-71.925
X147.16Y-129.9
X147.18Y-126.4
X147.65Y-138.87
X150.525Y-68.45
X150.525Y-75.45
X150.55Y-71.95
X150.68Y-94.94
X150.68Y-105.43
X150.68Y-108.91
X150.68Y-122.94
X150.68Y-126.42
X150.68Y-133.4
X150.709Y-98.447
X150.71Y-101.95
X150.71Y-119.46
X150.74Y-115.99
X152.4Y-140.375
X152.425Y-136.875
X153.49Y-152.25
X153.7Y-154.3
X154.05Y-71.975
X154.05Y-75.475
X154.075Y-78.975
X155.925Y-93.075
X157.6Y-78.975
X158.36Y-148.87
X158.37Y-151.87
X158.37Y-155.38
X159.375Y-82.5
X159.4Y-89.55
X159.425Y-93.075
X161.125Y-86.025
X162.9Y-89.55
X162.925Y-93.075
X163.375Y-153.375
T2
X106.225Y-149.415
X106.225Y-150.765
X107.075Y-149.415
X107.075Y-150.765
X107.925Y-149.415
X107.925Y-150.765
X108.775Y-149.415
X108.775Y-150.765
X109.625Y-149.415
X109.625Y-150.765
X110.475Y-149.415
X110.475Y-150.765
X111.325Y-149.415
X111.325Y-150.765
X112.175Y-149.415
X112.175Y-150.765
T4
X138.625Y-143.75
X138.625Y-145.782
X138.625Y-147.814
X138.625Y-149.846
X140.657Y-143.75
X140.657Y-145.782
X140.657Y-147.814
X140.657Y-149.846
X142.689Y-143.75
X142.689Y-145.782
X142.689Y-147.814
X142.689Y-149.846
X144.721Y-143.75
X144.721Y-145.782
X144.721Y-147.814
X144.721Y-149.846
X146.754Y-143.75
X146.754Y-145.782
X146.754Y-147.814
X146.754Y-149.846
T5
X141.42Y-138.09
X141.42Y-140.59
X150.922Y-147.609
X152.555Y-145.664
T6
X97.735Y-85.111
X97.985Y-88.361
X100.265Y-84.889
X100.515Y-88.139
X120.102Y-70.898
X121.898Y-69.102
X122.102Y-72.898
X123.898Y-71.102
X130.102Y-71.102
X131.898Y-72.898
X132.102Y-69.102
X133.898Y-70.898
X153.485Y-88.139
X153.735Y-84.889
X156.015Y-88.361
X156.265Y-85.111
T7
X102.5Y-94.0
X102.5Y-97.0
X105.04Y-94.0
X105.04Y-97.0
X107.58Y-94.0
X107.58Y-97.0
X111.85Y-103.0
X111.85Y-105.54
X111.85Y-108.08
X111.85Y-110.62
X112.91Y-137.96
X112.91Y-140.5
X112.91Y-143.04
X112.91Y-145.58
X124.25Y-120.73
X124.25Y-123.27
X129.75Y-120.73
X129.75Y-123.27
X142.15Y-103.0
X142.15Y-105.54
X142.15Y-108.08
X142.15Y-110.62
X145.225Y-134.72
X145.225Y-137.26
X145.225Y-139.8
X150.675Y-154.01
X150.675Y-156.55
T3
X104.875Y-149.645G85X104.875Y-151.145
G05
X104.875Y-153.375G85X104.875Y-154.175
G05
X113.525Y-149.645G85X113.525Y-151.145
G05
X113.525Y-153.375G85X113.525Y-154.175
G05
T0
M30
