%TF.GenerationSoftware,KiCad,Pcbnew,7.0.9*%
%TF.CreationDate,2024-01-15T17:26:04-08:00*%
%TF.ProjectId,mercury_2ir,6d657263-7572-4795-9f32-69722e6b6963,rev?*%
%TF.SameCoordinates,Original*%
%TF.FileFunction,Legend,Bot*%
%TF.FilePolarity,Positive*%
%FSLAX46Y46*%
G04 Gerber Fmt 4.6, Leading zero omitted, Abs format (unit mm)*
G04 Created by KiCad (PCBNEW 7.0.9) date 2024-01-15 17:26:04*
%MOMM*%
%LPD*%
G01*
G04 APERTURE LIST*
G04 Aperture macros list*
%AMRoundRect*
0 Rectangle with rounded corners*
0 $1 Rounding radius*
0 $2 $3 $4 $5 $6 $7 $8 $9 X,Y pos of 4 corners*
0 Add a 4 corners polygon primitive as box body*
4,1,4,$2,$3,$4,$5,$6,$7,$8,$9,$2,$3,0*
0 Add four circle primitives for the rounded corners*
1,1,$1+$1,$2,$3*
1,1,$1+$1,$4,$5*
1,1,$1+$1,$6,$7*
1,1,$1+$1,$8,$9*
0 Add four rect primitives between the rounded corners*
20,1,$1+$1,$2,$3,$4,$5,0*
20,1,$1+$1,$4,$5,$6,$7,0*
20,1,$1+$1,$6,$7,$8,$9,0*
20,1,$1+$1,$8,$9,$2,$3,0*%
%AMRotRect*
0 Rectangle, with rotation*
0 The origin of the aperture is its center*
0 $1 length*
0 $2 width*
0 $3 Rotation angle, in degrees counterclockwise*
0 Add horizontal line*
21,1,$1,$2,0,0,$3*%
G04 Aperture macros list end*
%ADD10C,0.150000*%
%ADD11C,0.300000*%
%ADD12C,0.120000*%
%ADD13C,0.700000*%
%ADD14O,0.900000X2.400000*%
%ADD15O,0.900000X1.700000*%
%ADD16R,1.700000X1.700000*%
%ADD17O,1.700000X1.700000*%
%ADD18R,1.600000X1.600000*%
%ADD19C,1.600000*%
%ADD20RoundRect,0.237500X-0.250000X-0.237500X0.250000X-0.237500X0.250000X0.237500X-0.250000X0.237500X0*%
%ADD21C,1.524000*%
%ADD22RotRect,1.600000X1.600000X50.000000*%
%ADD23C,2.184400*%
%ADD24RotRect,1.800000X1.800000X185.000000*%
%ADD25C,1.800000*%
%ADD26RotRect,1.800000X1.800000X175.000000*%
%ADD27RotRect,1.800000X1.800000X135.000000*%
%ADD28RotRect,1.800000X1.800000X45.000000*%
%ADD29RotRect,1.800000X1.800000X315.000000*%
%ADD30RotRect,1.800000X1.800000X355.000000*%
%ADD31RotRect,1.800000X1.800000X225.000000*%
%ADD32RoundRect,0.237500X-0.237500X0.250000X-0.237500X-0.250000X0.237500X-0.250000X0.237500X0.250000X0*%
%ADD33RoundRect,0.237500X0.250000X0.237500X-0.250000X0.237500X-0.250000X-0.237500X0.250000X-0.237500X0*%
%ADD34RoundRect,0.237500X0.237500X-0.250000X0.237500X0.250000X-0.237500X0.250000X-0.237500X-0.250000X0*%
%ADD35RoundRect,0.237500X0.344715X-0.008839X-0.008839X0.344715X-0.344715X0.008839X0.008839X-0.344715X0*%
%ADD36RoundRect,0.237500X-0.344715X0.008839X0.008839X-0.344715X0.344715X-0.008839X-0.008839X0.344715X0*%
G04 APERTURE END LIST*
D10*
X121000000Y-112000000D02*
X133000000Y-112000000D01*
X133000000Y-117625000D01*
X121000000Y-117625000D01*
X121000000Y-112000000D01*
X130928571Y-113649819D02*
X130928571Y-112649819D01*
X130928571Y-112649819D02*
X130595238Y-113364104D01*
X130595238Y-113364104D02*
X130261905Y-112649819D01*
X130261905Y-112649819D02*
X130261905Y-113649819D01*
X129404762Y-113602200D02*
X129500000Y-113649819D01*
X129500000Y-113649819D02*
X129690476Y-113649819D01*
X129690476Y-113649819D02*
X129785714Y-113602200D01*
X129785714Y-113602200D02*
X129833333Y-113506961D01*
X129833333Y-113506961D02*
X129833333Y-113126009D01*
X129833333Y-113126009D02*
X129785714Y-113030771D01*
X129785714Y-113030771D02*
X129690476Y-112983152D01*
X129690476Y-112983152D02*
X129500000Y-112983152D01*
X129500000Y-112983152D02*
X129404762Y-113030771D01*
X129404762Y-113030771D02*
X129357143Y-113126009D01*
X129357143Y-113126009D02*
X129357143Y-113221247D01*
X129357143Y-113221247D02*
X129833333Y-113316485D01*
X128928571Y-113649819D02*
X128928571Y-112983152D01*
X128928571Y-113173628D02*
X128880952Y-113078390D01*
X128880952Y-113078390D02*
X128833333Y-113030771D01*
X128833333Y-113030771D02*
X128738095Y-112983152D01*
X128738095Y-112983152D02*
X128642857Y-112983152D01*
X127880952Y-113602200D02*
X127976190Y-113649819D01*
X127976190Y-113649819D02*
X128166666Y-113649819D01*
X128166666Y-113649819D02*
X128261904Y-113602200D01*
X128261904Y-113602200D02*
X128309523Y-113554580D01*
X128309523Y-113554580D02*
X128357142Y-113459342D01*
X128357142Y-113459342D02*
X128357142Y-113173628D01*
X128357142Y-113173628D02*
X128309523Y-113078390D01*
X128309523Y-113078390D02*
X128261904Y-113030771D01*
X128261904Y-113030771D02*
X128166666Y-112983152D01*
X128166666Y-112983152D02*
X127976190Y-112983152D01*
X127976190Y-112983152D02*
X127880952Y-113030771D01*
X127023809Y-112983152D02*
X127023809Y-113649819D01*
X127452380Y-112983152D02*
X127452380Y-113506961D01*
X127452380Y-113506961D02*
X127404761Y-113602200D01*
X127404761Y-113602200D02*
X127309523Y-113649819D01*
X127309523Y-113649819D02*
X127166666Y-113649819D01*
X127166666Y-113649819D02*
X127071428Y-113602200D01*
X127071428Y-113602200D02*
X127023809Y-113554580D01*
X126547618Y-113649819D02*
X126547618Y-112983152D01*
X126547618Y-113173628D02*
X126499999Y-113078390D01*
X126499999Y-113078390D02*
X126452380Y-113030771D01*
X126452380Y-113030771D02*
X126357142Y-112983152D01*
X126357142Y-112983152D02*
X126261904Y-112983152D01*
X126023808Y-112983152D02*
X125785713Y-113649819D01*
X125547618Y-112983152D02*
X125785713Y-113649819D01*
X125785713Y-113649819D02*
X125880951Y-113887914D01*
X125880951Y-113887914D02*
X125928570Y-113935533D01*
X125928570Y-113935533D02*
X126023808Y-113983152D01*
X125404761Y-113745057D02*
X124642856Y-113745057D01*
X124547617Y-112649819D02*
X124214284Y-113649819D01*
X124214284Y-113649819D02*
X123880951Y-112649819D01*
X123023808Y-113649819D02*
X123595236Y-113649819D01*
X123309522Y-113649819D02*
X123309522Y-112649819D01*
X123309522Y-112649819D02*
X123404760Y-112792676D01*
X123404760Y-112792676D02*
X123499998Y-112887914D01*
X123499998Y-112887914D02*
X123595236Y-112935533D01*
X131333333Y-114736009D02*
X131190476Y-114783628D01*
X131190476Y-114783628D02*
X131142857Y-114831247D01*
X131142857Y-114831247D02*
X131095238Y-114926485D01*
X131095238Y-114926485D02*
X131095238Y-115069342D01*
X131095238Y-115069342D02*
X131142857Y-115164580D01*
X131142857Y-115164580D02*
X131190476Y-115212200D01*
X131190476Y-115212200D02*
X131285714Y-115259819D01*
X131285714Y-115259819D02*
X131666666Y-115259819D01*
X131666666Y-115259819D02*
X131666666Y-114259819D01*
X131666666Y-114259819D02*
X131333333Y-114259819D01*
X131333333Y-114259819D02*
X131238095Y-114307438D01*
X131238095Y-114307438D02*
X131190476Y-114355057D01*
X131190476Y-114355057D02*
X131142857Y-114450295D01*
X131142857Y-114450295D02*
X131142857Y-114545533D01*
X131142857Y-114545533D02*
X131190476Y-114640771D01*
X131190476Y-114640771D02*
X131238095Y-114688390D01*
X131238095Y-114688390D02*
X131333333Y-114736009D01*
X131333333Y-114736009D02*
X131666666Y-114736009D01*
X130761904Y-114593152D02*
X130523809Y-115259819D01*
X130285714Y-114593152D02*
X130523809Y-115259819D01*
X130523809Y-115259819D02*
X130619047Y-115497914D01*
X130619047Y-115497914D02*
X130666666Y-115545533D01*
X130666666Y-115545533D02*
X130761904Y-115593152D01*
X129904761Y-115164580D02*
X129857142Y-115212200D01*
X129857142Y-115212200D02*
X129904761Y-115259819D01*
X129904761Y-115259819D02*
X129952380Y-115212200D01*
X129952380Y-115212200D02*
X129904761Y-115164580D01*
X129904761Y-115164580D02*
X129904761Y-115259819D01*
X129904761Y-114640771D02*
X129857142Y-114688390D01*
X129857142Y-114688390D02*
X129904761Y-114736009D01*
X129904761Y-114736009D02*
X129952380Y-114688390D01*
X129952380Y-114688390D02*
X129904761Y-114640771D01*
X129904761Y-114640771D02*
X129904761Y-114736009D01*
X128666666Y-115259819D02*
X128666666Y-114259819D01*
X128095238Y-115259819D02*
X128523809Y-114688390D01*
X128095238Y-114259819D02*
X128666666Y-114831247D01*
X127761904Y-114593152D02*
X127523809Y-115259819D01*
X127285714Y-114593152D02*
X127523809Y-115259819D01*
X127523809Y-115259819D02*
X127619047Y-115497914D01*
X127619047Y-115497914D02*
X127666666Y-115545533D01*
X127666666Y-115545533D02*
X127761904Y-115593152D01*
X126761904Y-115259819D02*
X126857142Y-115212200D01*
X126857142Y-115212200D02*
X126904761Y-115116961D01*
X126904761Y-115116961D02*
X126904761Y-114259819D01*
X125999999Y-115212200D02*
X126095237Y-115259819D01*
X126095237Y-115259819D02*
X126285713Y-115259819D01*
X126285713Y-115259819D02*
X126380951Y-115212200D01*
X126380951Y-115212200D02*
X126428570Y-115116961D01*
X126428570Y-115116961D02*
X126428570Y-114736009D01*
X126428570Y-114736009D02*
X126380951Y-114640771D01*
X126380951Y-114640771D02*
X126285713Y-114593152D01*
X126285713Y-114593152D02*
X126095237Y-114593152D01*
X126095237Y-114593152D02*
X125999999Y-114640771D01*
X125999999Y-114640771D02*
X125952380Y-114736009D01*
X125952380Y-114736009D02*
X125952380Y-114831247D01*
X125952380Y-114831247D02*
X126428570Y-114926485D01*
X124904760Y-114259819D02*
X124333332Y-114259819D01*
X124619046Y-115259819D02*
X124619046Y-114259819D01*
X124095236Y-114593152D02*
X123857141Y-115259819D01*
X123619046Y-114593152D02*
X123857141Y-115259819D01*
X123857141Y-115259819D02*
X123952379Y-115497914D01*
X123952379Y-115497914D02*
X123999998Y-115545533D01*
X123999998Y-115545533D02*
X124095236Y-115593152D01*
X123238093Y-114593152D02*
X123238093Y-115259819D01*
X123238093Y-114688390D02*
X123190474Y-114640771D01*
X123190474Y-114640771D02*
X123095236Y-114593152D01*
X123095236Y-114593152D02*
X122952379Y-114593152D01*
X122952379Y-114593152D02*
X122857141Y-114640771D01*
X122857141Y-114640771D02*
X122809522Y-114736009D01*
X122809522Y-114736009D02*
X122809522Y-115259819D01*
X122333331Y-115259819D02*
X122333331Y-114593152D01*
X122333331Y-114259819D02*
X122380950Y-114307438D01*
X122380950Y-114307438D02*
X122333331Y-114355057D01*
X122333331Y-114355057D02*
X122285712Y-114307438D01*
X122285712Y-114307438D02*
X122333331Y-114259819D01*
X122333331Y-114259819D02*
X122333331Y-114355057D01*
X128714285Y-115965057D02*
X128666666Y-115917438D01*
X128666666Y-115917438D02*
X128571428Y-115869819D01*
X128571428Y-115869819D02*
X128333333Y-115869819D01*
X128333333Y-115869819D02*
X128238095Y-115917438D01*
X128238095Y-115917438D02*
X128190476Y-115965057D01*
X128190476Y-115965057D02*
X128142857Y-116060295D01*
X128142857Y-116060295D02*
X128142857Y-116155533D01*
X128142857Y-116155533D02*
X128190476Y-116298390D01*
X128190476Y-116298390D02*
X128761904Y-116869819D01*
X128761904Y-116869819D02*
X128142857Y-116869819D01*
X127523809Y-115869819D02*
X127428571Y-115869819D01*
X127428571Y-115869819D02*
X127333333Y-115917438D01*
X127333333Y-115917438D02*
X127285714Y-115965057D01*
X127285714Y-115965057D02*
X127238095Y-116060295D01*
X127238095Y-116060295D02*
X127190476Y-116250771D01*
X127190476Y-116250771D02*
X127190476Y-116488866D01*
X127190476Y-116488866D02*
X127238095Y-116679342D01*
X127238095Y-116679342D02*
X127285714Y-116774580D01*
X127285714Y-116774580D02*
X127333333Y-116822200D01*
X127333333Y-116822200D02*
X127428571Y-116869819D01*
X127428571Y-116869819D02*
X127523809Y-116869819D01*
X127523809Y-116869819D02*
X127619047Y-116822200D01*
X127619047Y-116822200D02*
X127666666Y-116774580D01*
X127666666Y-116774580D02*
X127714285Y-116679342D01*
X127714285Y-116679342D02*
X127761904Y-116488866D01*
X127761904Y-116488866D02*
X127761904Y-116250771D01*
X127761904Y-116250771D02*
X127714285Y-116060295D01*
X127714285Y-116060295D02*
X127666666Y-115965057D01*
X127666666Y-115965057D02*
X127619047Y-115917438D01*
X127619047Y-115917438D02*
X127523809Y-115869819D01*
X126809523Y-115965057D02*
X126761904Y-115917438D01*
X126761904Y-115917438D02*
X126666666Y-115869819D01*
X126666666Y-115869819D02*
X126428571Y-115869819D01*
X126428571Y-115869819D02*
X126333333Y-115917438D01*
X126333333Y-115917438D02*
X126285714Y-115965057D01*
X126285714Y-115965057D02*
X126238095Y-116060295D01*
X126238095Y-116060295D02*
X126238095Y-116155533D01*
X126238095Y-116155533D02*
X126285714Y-116298390D01*
X126285714Y-116298390D02*
X126857142Y-116869819D01*
X126857142Y-116869819D02*
X126238095Y-116869819D01*
X125380952Y-116203152D02*
X125380952Y-116869819D01*
X125619047Y-115822200D02*
X125857142Y-116536485D01*
X125857142Y-116536485D02*
X125238095Y-116536485D01*
D11*
X144671427Y-79679757D02*
X144814285Y-79608328D01*
X144814285Y-79608328D02*
X145028570Y-79608328D01*
X145028570Y-79608328D02*
X145242856Y-79679757D01*
X145242856Y-79679757D02*
X145385713Y-79822614D01*
X145385713Y-79822614D02*
X145457142Y-79965471D01*
X145457142Y-79965471D02*
X145528570Y-80251185D01*
X145528570Y-80251185D02*
X145528570Y-80465471D01*
X145528570Y-80465471D02*
X145457142Y-80751185D01*
X145457142Y-80751185D02*
X145385713Y-80894042D01*
X145385713Y-80894042D02*
X145242856Y-81036900D01*
X145242856Y-81036900D02*
X145028570Y-81108328D01*
X145028570Y-81108328D02*
X144885713Y-81108328D01*
X144885713Y-81108328D02*
X144671427Y-81036900D01*
X144671427Y-81036900D02*
X144599999Y-80965471D01*
X144599999Y-80965471D02*
X144599999Y-80465471D01*
X144599999Y-80465471D02*
X144885713Y-80465471D01*
X143742856Y-79608328D02*
X143742856Y-79965471D01*
X144099999Y-79822614D02*
X143742856Y-79965471D01*
X143742856Y-79965471D02*
X143385713Y-79822614D01*
X143957142Y-80251185D02*
X143742856Y-79965471D01*
X143742856Y-79965471D02*
X143528570Y-80251185D01*
X142599999Y-79608328D02*
X142599999Y-79965471D01*
X142957142Y-79822614D02*
X142599999Y-79965471D01*
X142599999Y-79965471D02*
X142242856Y-79822614D01*
X142814285Y-80251185D02*
X142599999Y-79965471D01*
X142599999Y-79965471D02*
X142385713Y-80251185D01*
X141457142Y-79608328D02*
X141457142Y-79965471D01*
X141814285Y-79822614D02*
X141457142Y-79965471D01*
X141457142Y-79965471D02*
X141099999Y-79822614D01*
X141671428Y-80251185D02*
X141457142Y-79965471D01*
X141457142Y-79965471D02*
X141242856Y-80251185D01*
D10*
X131592857Y-149934819D02*
X131926190Y-149458628D01*
X132164285Y-149934819D02*
X132164285Y-148934819D01*
X132164285Y-148934819D02*
X131783333Y-148934819D01*
X131783333Y-148934819D02*
X131688095Y-148982438D01*
X131688095Y-148982438D02*
X131640476Y-149030057D01*
X131640476Y-149030057D02*
X131592857Y-149125295D01*
X131592857Y-149125295D02*
X131592857Y-149268152D01*
X131592857Y-149268152D02*
X131640476Y-149363390D01*
X131640476Y-149363390D02*
X131688095Y-149411009D01*
X131688095Y-149411009D02*
X131783333Y-149458628D01*
X131783333Y-149458628D02*
X132164285Y-149458628D01*
X130640476Y-149934819D02*
X131211904Y-149934819D01*
X130926190Y-149934819D02*
X130926190Y-148934819D01*
X130926190Y-148934819D02*
X131021428Y-149077676D01*
X131021428Y-149077676D02*
X131116666Y-149172914D01*
X131116666Y-149172914D02*
X131211904Y-149220533D01*
X130307142Y-148934819D02*
X129688095Y-148934819D01*
X129688095Y-148934819D02*
X130021428Y-149315771D01*
X130021428Y-149315771D02*
X129878571Y-149315771D01*
X129878571Y-149315771D02*
X129783333Y-149363390D01*
X129783333Y-149363390D02*
X129735714Y-149411009D01*
X129735714Y-149411009D02*
X129688095Y-149506247D01*
X129688095Y-149506247D02*
X129688095Y-149744342D01*
X129688095Y-149744342D02*
X129735714Y-149839580D01*
X129735714Y-149839580D02*
X129783333Y-149887200D01*
X129783333Y-149887200D02*
X129878571Y-149934819D01*
X129878571Y-149934819D02*
X130164285Y-149934819D01*
X130164285Y-149934819D02*
X130259523Y-149887200D01*
X130259523Y-149887200D02*
X130307142Y-149839580D01*
X126114819Y-152147142D02*
X125638628Y-151813809D01*
X126114819Y-151575714D02*
X125114819Y-151575714D01*
X125114819Y-151575714D02*
X125114819Y-151956666D01*
X125114819Y-151956666D02*
X125162438Y-152051904D01*
X125162438Y-152051904D02*
X125210057Y-152099523D01*
X125210057Y-152099523D02*
X125305295Y-152147142D01*
X125305295Y-152147142D02*
X125448152Y-152147142D01*
X125448152Y-152147142D02*
X125543390Y-152099523D01*
X125543390Y-152099523D02*
X125591009Y-152051904D01*
X125591009Y-152051904D02*
X125638628Y-151956666D01*
X125638628Y-151956666D02*
X125638628Y-151575714D01*
X125210057Y-152528095D02*
X125162438Y-152575714D01*
X125162438Y-152575714D02*
X125114819Y-152670952D01*
X125114819Y-152670952D02*
X125114819Y-152909047D01*
X125114819Y-152909047D02*
X125162438Y-153004285D01*
X125162438Y-153004285D02*
X125210057Y-153051904D01*
X125210057Y-153051904D02*
X125305295Y-153099523D01*
X125305295Y-153099523D02*
X125400533Y-153099523D01*
X125400533Y-153099523D02*
X125543390Y-153051904D01*
X125543390Y-153051904D02*
X126114819Y-152480476D01*
X126114819Y-152480476D02*
X126114819Y-153099523D01*
X126114819Y-154051904D02*
X126114819Y-153480476D01*
X126114819Y-153766190D02*
X125114819Y-153766190D01*
X125114819Y-153766190D02*
X125257676Y-153670952D01*
X125257676Y-153670952D02*
X125352914Y-153575714D01*
X125352914Y-153575714D02*
X125400533Y-153480476D01*
X146274819Y-104017142D02*
X145798628Y-103683809D01*
X146274819Y-103445714D02*
X145274819Y-103445714D01*
X145274819Y-103445714D02*
X145274819Y-103826666D01*
X145274819Y-103826666D02*
X145322438Y-103921904D01*
X145322438Y-103921904D02*
X145370057Y-103969523D01*
X145370057Y-103969523D02*
X145465295Y-104017142D01*
X145465295Y-104017142D02*
X145608152Y-104017142D01*
X145608152Y-104017142D02*
X145703390Y-103969523D01*
X145703390Y-103969523D02*
X145751009Y-103921904D01*
X145751009Y-103921904D02*
X145798628Y-103826666D01*
X145798628Y-103826666D02*
X145798628Y-103445714D01*
X145370057Y-104398095D02*
X145322438Y-104445714D01*
X145322438Y-104445714D02*
X145274819Y-104540952D01*
X145274819Y-104540952D02*
X145274819Y-104779047D01*
X145274819Y-104779047D02*
X145322438Y-104874285D01*
X145322438Y-104874285D02*
X145370057Y-104921904D01*
X145370057Y-104921904D02*
X145465295Y-104969523D01*
X145465295Y-104969523D02*
X145560533Y-104969523D01*
X145560533Y-104969523D02*
X145703390Y-104921904D01*
X145703390Y-104921904D02*
X146274819Y-104350476D01*
X146274819Y-104350476D02*
X146274819Y-104969523D01*
X145703390Y-105540952D02*
X145655771Y-105445714D01*
X145655771Y-105445714D02*
X145608152Y-105398095D01*
X145608152Y-105398095D02*
X145512914Y-105350476D01*
X145512914Y-105350476D02*
X145465295Y-105350476D01*
X145465295Y-105350476D02*
X145370057Y-105398095D01*
X145370057Y-105398095D02*
X145322438Y-105445714D01*
X145322438Y-105445714D02*
X145274819Y-105540952D01*
X145274819Y-105540952D02*
X145274819Y-105731428D01*
X145274819Y-105731428D02*
X145322438Y-105826666D01*
X145322438Y-105826666D02*
X145370057Y-105874285D01*
X145370057Y-105874285D02*
X145465295Y-105921904D01*
X145465295Y-105921904D02*
X145512914Y-105921904D01*
X145512914Y-105921904D02*
X145608152Y-105874285D01*
X145608152Y-105874285D02*
X145655771Y-105826666D01*
X145655771Y-105826666D02*
X145703390Y-105731428D01*
X145703390Y-105731428D02*
X145703390Y-105540952D01*
X145703390Y-105540952D02*
X145751009Y-105445714D01*
X145751009Y-105445714D02*
X145798628Y-105398095D01*
X145798628Y-105398095D02*
X145893866Y-105350476D01*
X145893866Y-105350476D02*
X146084342Y-105350476D01*
X146084342Y-105350476D02*
X146179580Y-105398095D01*
X146179580Y-105398095D02*
X146227200Y-105445714D01*
X146227200Y-105445714D02*
X146274819Y-105540952D01*
X146274819Y-105540952D02*
X146274819Y-105731428D01*
X146274819Y-105731428D02*
X146227200Y-105826666D01*
X146227200Y-105826666D02*
X146179580Y-105874285D01*
X146179580Y-105874285D02*
X146084342Y-105921904D01*
X146084342Y-105921904D02*
X145893866Y-105921904D01*
X145893866Y-105921904D02*
X145798628Y-105874285D01*
X145798628Y-105874285D02*
X145751009Y-105826666D01*
X145751009Y-105826666D02*
X145703390Y-105731428D01*
X130852857Y-157404819D02*
X131186190Y-156928628D01*
X131424285Y-157404819D02*
X131424285Y-156404819D01*
X131424285Y-156404819D02*
X131043333Y-156404819D01*
X131043333Y-156404819D02*
X130948095Y-156452438D01*
X130948095Y-156452438D02*
X130900476Y-156500057D01*
X130900476Y-156500057D02*
X130852857Y-156595295D01*
X130852857Y-156595295D02*
X130852857Y-156738152D01*
X130852857Y-156738152D02*
X130900476Y-156833390D01*
X130900476Y-156833390D02*
X130948095Y-156881009D01*
X130948095Y-156881009D02*
X131043333Y-156928628D01*
X131043333Y-156928628D02*
X131424285Y-156928628D01*
X129900476Y-157404819D02*
X130471904Y-157404819D01*
X130186190Y-157404819D02*
X130186190Y-156404819D01*
X130186190Y-156404819D02*
X130281428Y-156547676D01*
X130281428Y-156547676D02*
X130376666Y-156642914D01*
X130376666Y-156642914D02*
X130471904Y-156690533D01*
X129519523Y-156500057D02*
X129471904Y-156452438D01*
X129471904Y-156452438D02*
X129376666Y-156404819D01*
X129376666Y-156404819D02*
X129138571Y-156404819D01*
X129138571Y-156404819D02*
X129043333Y-156452438D01*
X129043333Y-156452438D02*
X128995714Y-156500057D01*
X128995714Y-156500057D02*
X128948095Y-156595295D01*
X128948095Y-156595295D02*
X128948095Y-156690533D01*
X128948095Y-156690533D02*
X128995714Y-156833390D01*
X128995714Y-156833390D02*
X129567142Y-157404819D01*
X129567142Y-157404819D02*
X128948095Y-157404819D01*
X146214819Y-107327142D02*
X145738628Y-106993809D01*
X146214819Y-106755714D02*
X145214819Y-106755714D01*
X145214819Y-106755714D02*
X145214819Y-107136666D01*
X145214819Y-107136666D02*
X145262438Y-107231904D01*
X145262438Y-107231904D02*
X145310057Y-107279523D01*
X145310057Y-107279523D02*
X145405295Y-107327142D01*
X145405295Y-107327142D02*
X145548152Y-107327142D01*
X145548152Y-107327142D02*
X145643390Y-107279523D01*
X145643390Y-107279523D02*
X145691009Y-107231904D01*
X145691009Y-107231904D02*
X145738628Y-107136666D01*
X145738628Y-107136666D02*
X145738628Y-106755714D01*
X146214819Y-108279523D02*
X146214819Y-107708095D01*
X146214819Y-107993809D02*
X145214819Y-107993809D01*
X145214819Y-107993809D02*
X145357676Y-107898571D01*
X145357676Y-107898571D02*
X145452914Y-107803333D01*
X145452914Y-107803333D02*
X145500533Y-107708095D01*
X146214819Y-108755714D02*
X146214819Y-108946190D01*
X146214819Y-108946190D02*
X146167200Y-109041428D01*
X146167200Y-109041428D02*
X146119580Y-109089047D01*
X146119580Y-109089047D02*
X145976723Y-109184285D01*
X145976723Y-109184285D02*
X145786247Y-109231904D01*
X145786247Y-109231904D02*
X145405295Y-109231904D01*
X145405295Y-109231904D02*
X145310057Y-109184285D01*
X145310057Y-109184285D02*
X145262438Y-109136666D01*
X145262438Y-109136666D02*
X145214819Y-109041428D01*
X145214819Y-109041428D02*
X145214819Y-108850952D01*
X145214819Y-108850952D02*
X145262438Y-108755714D01*
X145262438Y-108755714D02*
X145310057Y-108708095D01*
X145310057Y-108708095D02*
X145405295Y-108660476D01*
X145405295Y-108660476D02*
X145643390Y-108660476D01*
X145643390Y-108660476D02*
X145738628Y-108708095D01*
X145738628Y-108708095D02*
X145786247Y-108755714D01*
X145786247Y-108755714D02*
X145833866Y-108850952D01*
X145833866Y-108850952D02*
X145833866Y-109041428D01*
X145833866Y-109041428D02*
X145786247Y-109136666D01*
X145786247Y-109136666D02*
X145738628Y-109184285D01*
X145738628Y-109184285D02*
X145643390Y-109231904D01*
X114192963Y-82096174D02*
X114765382Y-81995159D01*
X114597024Y-82500235D02*
X115304130Y-81793128D01*
X115304130Y-81793128D02*
X115034756Y-81523754D01*
X115034756Y-81523754D02*
X114933741Y-81490082D01*
X114933741Y-81490082D02*
X114866398Y-81490082D01*
X114866398Y-81490082D02*
X114765382Y-81523754D01*
X114765382Y-81523754D02*
X114664367Y-81624769D01*
X114664367Y-81624769D02*
X114630695Y-81725785D01*
X114630695Y-81725785D02*
X114630695Y-81793128D01*
X114630695Y-81793128D02*
X114664367Y-81894143D01*
X114664367Y-81894143D02*
X114933741Y-82163517D01*
X114563352Y-81187037D02*
X114563352Y-81119693D01*
X114563352Y-81119693D02*
X114529680Y-81018678D01*
X114529680Y-81018678D02*
X114361321Y-80850319D01*
X114361321Y-80850319D02*
X114260306Y-80816647D01*
X114260306Y-80816647D02*
X114192963Y-80816647D01*
X114192963Y-80816647D02*
X114091947Y-80850319D01*
X114091947Y-80850319D02*
X114024604Y-80917663D01*
X114024604Y-80917663D02*
X113957260Y-81052350D01*
X113957260Y-81052350D02*
X113957260Y-81860472D01*
X113957260Y-81860472D02*
X113519528Y-81422739D01*
X113182810Y-81086021D02*
X113048123Y-80951334D01*
X113048123Y-80951334D02*
X113014451Y-80850319D01*
X113014451Y-80850319D02*
X113014451Y-80782975D01*
X113014451Y-80782975D02*
X113048123Y-80614617D01*
X113048123Y-80614617D02*
X113149138Y-80446258D01*
X113149138Y-80446258D02*
X113418512Y-80176884D01*
X113418512Y-80176884D02*
X113519527Y-80143212D01*
X113519527Y-80143212D02*
X113586871Y-80143212D01*
X113586871Y-80143212D02*
X113687886Y-80176884D01*
X113687886Y-80176884D02*
X113822573Y-80311571D01*
X113822573Y-80311571D02*
X113856245Y-80412586D01*
X113856245Y-80412586D02*
X113856245Y-80479930D01*
X113856245Y-80479930D02*
X113822573Y-80580945D01*
X113822573Y-80580945D02*
X113654214Y-80749304D01*
X113654214Y-80749304D02*
X113553199Y-80782975D01*
X113553199Y-80782975D02*
X113485856Y-80782975D01*
X113485856Y-80782975D02*
X113384840Y-80749304D01*
X113384840Y-80749304D02*
X113250153Y-80614617D01*
X113250153Y-80614617D02*
X113216482Y-80513601D01*
X113216482Y-80513601D02*
X113216482Y-80446258D01*
X113216482Y-80446258D02*
X113250153Y-80345243D01*
X109557963Y-85996173D02*
X110130382Y-85895158D01*
X109962024Y-86400234D02*
X110669130Y-85693127D01*
X110669130Y-85693127D02*
X110399756Y-85423753D01*
X110399756Y-85423753D02*
X110298741Y-85390081D01*
X110298741Y-85390081D02*
X110231398Y-85390081D01*
X110231398Y-85390081D02*
X110130382Y-85423753D01*
X110130382Y-85423753D02*
X110029367Y-85524768D01*
X110029367Y-85524768D02*
X109995695Y-85625784D01*
X109995695Y-85625784D02*
X109995695Y-85693127D01*
X109995695Y-85693127D02*
X110029367Y-85794142D01*
X110029367Y-85794142D02*
X110298741Y-86063516D01*
X110029367Y-85053364D02*
X109591634Y-84615631D01*
X109591634Y-84615631D02*
X109557963Y-85120707D01*
X109557963Y-85120707D02*
X109456947Y-85019692D01*
X109456947Y-85019692D02*
X109355932Y-84986020D01*
X109355932Y-84986020D02*
X109288589Y-84986020D01*
X109288589Y-84986020D02*
X109187573Y-85019692D01*
X109187573Y-85019692D02*
X109019215Y-85188051D01*
X109019215Y-85188051D02*
X108985543Y-85289066D01*
X108985543Y-85289066D02*
X108985543Y-85356410D01*
X108985543Y-85356410D02*
X109019215Y-85457425D01*
X109019215Y-85457425D02*
X109221245Y-85659455D01*
X109221245Y-85659455D02*
X109322260Y-85693127D01*
X109322260Y-85693127D02*
X109389604Y-85693127D01*
X109355932Y-84379929D02*
X108884527Y-83908524D01*
X108884527Y-83908524D02*
X108480466Y-84918677D01*
X109171800Y-91462337D02*
X109744219Y-91361322D01*
X109575861Y-91866398D02*
X110282967Y-91159291D01*
X110282967Y-91159291D02*
X110013593Y-90889917D01*
X110013593Y-90889917D02*
X109912578Y-90856245D01*
X109912578Y-90856245D02*
X109845235Y-90856245D01*
X109845235Y-90856245D02*
X109744219Y-90889917D01*
X109744219Y-90889917D02*
X109643204Y-90990932D01*
X109643204Y-90990932D02*
X109609532Y-91091948D01*
X109609532Y-91091948D02*
X109609532Y-91159291D01*
X109609532Y-91159291D02*
X109643204Y-91260306D01*
X109643204Y-91260306D02*
X109912578Y-91529680D01*
X109643204Y-90519528D02*
X109205471Y-90081795D01*
X109205471Y-90081795D02*
X109171800Y-90586871D01*
X109171800Y-90586871D02*
X109070784Y-90485856D01*
X109070784Y-90485856D02*
X108969769Y-90452184D01*
X108969769Y-90452184D02*
X108902426Y-90452184D01*
X108902426Y-90452184D02*
X108801410Y-90485856D01*
X108801410Y-90485856D02*
X108633052Y-90654215D01*
X108633052Y-90654215D02*
X108599380Y-90755230D01*
X108599380Y-90755230D02*
X108599380Y-90822574D01*
X108599380Y-90822574D02*
X108633052Y-90923589D01*
X108633052Y-90923589D02*
X108835082Y-91125619D01*
X108835082Y-91125619D02*
X108936097Y-91159291D01*
X108936097Y-91159291D02*
X109003441Y-91159291D01*
X108767738Y-89644062D02*
X108700395Y-89576719D01*
X108700395Y-89576719D02*
X108599380Y-89543047D01*
X108599380Y-89543047D02*
X108532036Y-89543047D01*
X108532036Y-89543047D02*
X108431021Y-89576719D01*
X108431021Y-89576719D02*
X108262662Y-89677734D01*
X108262662Y-89677734D02*
X108094303Y-89846093D01*
X108094303Y-89846093D02*
X107993288Y-90014451D01*
X107993288Y-90014451D02*
X107959616Y-90115467D01*
X107959616Y-90115467D02*
X107959616Y-90182810D01*
X107959616Y-90182810D02*
X107993288Y-90283825D01*
X107993288Y-90283825D02*
X108060632Y-90351169D01*
X108060632Y-90351169D02*
X108161647Y-90384841D01*
X108161647Y-90384841D02*
X108228990Y-90384841D01*
X108228990Y-90384841D02*
X108330006Y-90351169D01*
X108330006Y-90351169D02*
X108498364Y-90250154D01*
X108498364Y-90250154D02*
X108666723Y-90081795D01*
X108666723Y-90081795D02*
X108767738Y-89913436D01*
X108767738Y-89913436D02*
X108801410Y-89812421D01*
X108801410Y-89812421D02*
X108801410Y-89745077D01*
X108801410Y-89745077D02*
X108767738Y-89644062D01*
X110032857Y-156934819D02*
X110366190Y-156458628D01*
X110604285Y-156934819D02*
X110604285Y-155934819D01*
X110604285Y-155934819D02*
X110223333Y-155934819D01*
X110223333Y-155934819D02*
X110128095Y-155982438D01*
X110128095Y-155982438D02*
X110080476Y-156030057D01*
X110080476Y-156030057D02*
X110032857Y-156125295D01*
X110032857Y-156125295D02*
X110032857Y-156268152D01*
X110032857Y-156268152D02*
X110080476Y-156363390D01*
X110080476Y-156363390D02*
X110128095Y-156411009D01*
X110128095Y-156411009D02*
X110223333Y-156458628D01*
X110223333Y-156458628D02*
X110604285Y-156458628D01*
X109080476Y-156934819D02*
X109651904Y-156934819D01*
X109366190Y-156934819D02*
X109366190Y-155934819D01*
X109366190Y-155934819D02*
X109461428Y-156077676D01*
X109461428Y-156077676D02*
X109556666Y-156172914D01*
X109556666Y-156172914D02*
X109651904Y-156220533D01*
X108747142Y-155934819D02*
X108080476Y-155934819D01*
X108080476Y-155934819D02*
X108509047Y-156934819D01*
X105072857Y-155904819D02*
X105406190Y-155428628D01*
X105644285Y-155904819D02*
X105644285Y-154904819D01*
X105644285Y-154904819D02*
X105263333Y-154904819D01*
X105263333Y-154904819D02*
X105168095Y-154952438D01*
X105168095Y-154952438D02*
X105120476Y-155000057D01*
X105120476Y-155000057D02*
X105072857Y-155095295D01*
X105072857Y-155095295D02*
X105072857Y-155238152D01*
X105072857Y-155238152D02*
X105120476Y-155333390D01*
X105120476Y-155333390D02*
X105168095Y-155381009D01*
X105168095Y-155381009D02*
X105263333Y-155428628D01*
X105263333Y-155428628D02*
X105644285Y-155428628D01*
X104215714Y-155238152D02*
X104215714Y-155904819D01*
X104453809Y-154857200D02*
X104691904Y-155571485D01*
X104691904Y-155571485D02*
X104072857Y-155571485D01*
X103501428Y-154904819D02*
X103406190Y-154904819D01*
X103406190Y-154904819D02*
X103310952Y-154952438D01*
X103310952Y-154952438D02*
X103263333Y-155000057D01*
X103263333Y-155000057D02*
X103215714Y-155095295D01*
X103215714Y-155095295D02*
X103168095Y-155285771D01*
X103168095Y-155285771D02*
X103168095Y-155523866D01*
X103168095Y-155523866D02*
X103215714Y-155714342D01*
X103215714Y-155714342D02*
X103263333Y-155809580D01*
X103263333Y-155809580D02*
X103310952Y-155857200D01*
X103310952Y-155857200D02*
X103406190Y-155904819D01*
X103406190Y-155904819D02*
X103501428Y-155904819D01*
X103501428Y-155904819D02*
X103596666Y-155857200D01*
X103596666Y-155857200D02*
X103644285Y-155809580D01*
X103644285Y-155809580D02*
X103691904Y-155714342D01*
X103691904Y-155714342D02*
X103739523Y-155523866D01*
X103739523Y-155523866D02*
X103739523Y-155285771D01*
X103739523Y-155285771D02*
X103691904Y-155095295D01*
X103691904Y-155095295D02*
X103644285Y-155000057D01*
X103644285Y-155000057D02*
X103596666Y-154952438D01*
X103596666Y-154952438D02*
X103501428Y-154904819D01*
X131404819Y-152477142D02*
X130928628Y-152143809D01*
X131404819Y-151905714D02*
X130404819Y-151905714D01*
X130404819Y-151905714D02*
X130404819Y-152286666D01*
X130404819Y-152286666D02*
X130452438Y-152381904D01*
X130452438Y-152381904D02*
X130500057Y-152429523D01*
X130500057Y-152429523D02*
X130595295Y-152477142D01*
X130595295Y-152477142D02*
X130738152Y-152477142D01*
X130738152Y-152477142D02*
X130833390Y-152429523D01*
X130833390Y-152429523D02*
X130881009Y-152381904D01*
X130881009Y-152381904D02*
X130928628Y-152286666D01*
X130928628Y-152286666D02*
X130928628Y-151905714D01*
X130500057Y-152858095D02*
X130452438Y-152905714D01*
X130452438Y-152905714D02*
X130404819Y-153000952D01*
X130404819Y-153000952D02*
X130404819Y-153239047D01*
X130404819Y-153239047D02*
X130452438Y-153334285D01*
X130452438Y-153334285D02*
X130500057Y-153381904D01*
X130500057Y-153381904D02*
X130595295Y-153429523D01*
X130595295Y-153429523D02*
X130690533Y-153429523D01*
X130690533Y-153429523D02*
X130833390Y-153381904D01*
X130833390Y-153381904D02*
X131404819Y-152810476D01*
X131404819Y-152810476D02*
X131404819Y-153429523D01*
X130404819Y-154048571D02*
X130404819Y-154143809D01*
X130404819Y-154143809D02*
X130452438Y-154239047D01*
X130452438Y-154239047D02*
X130500057Y-154286666D01*
X130500057Y-154286666D02*
X130595295Y-154334285D01*
X130595295Y-154334285D02*
X130785771Y-154381904D01*
X130785771Y-154381904D02*
X131023866Y-154381904D01*
X131023866Y-154381904D02*
X131214342Y-154334285D01*
X131214342Y-154334285D02*
X131309580Y-154286666D01*
X131309580Y-154286666D02*
X131357200Y-154239047D01*
X131357200Y-154239047D02*
X131404819Y-154143809D01*
X131404819Y-154143809D02*
X131404819Y-154048571D01*
X131404819Y-154048571D02*
X131357200Y-153953333D01*
X131357200Y-153953333D02*
X131309580Y-153905714D01*
X131309580Y-153905714D02*
X131214342Y-153858095D01*
X131214342Y-153858095D02*
X131023866Y-153810476D01*
X131023866Y-153810476D02*
X130785771Y-153810476D01*
X130785771Y-153810476D02*
X130595295Y-153858095D01*
X130595295Y-153858095D02*
X130500057Y-153905714D01*
X130500057Y-153905714D02*
X130452438Y-153953333D01*
X130452438Y-153953333D02*
X130404819Y-154048571D01*
%TO.C,G\u002A\u002A\u002A*%
G36*
X148670069Y-70184992D02*
G01*
X148687328Y-70250161D01*
X148699994Y-70362152D01*
X148712262Y-70528060D01*
X148713294Y-70568976D01*
X148711772Y-70673921D01*
X148706931Y-70827454D01*
X148699091Y-71024093D01*
X148688574Y-71258356D01*
X148675699Y-71524760D01*
X148660787Y-71817824D01*
X148644159Y-72132066D01*
X148626135Y-72462003D01*
X148607037Y-72802153D01*
X148587183Y-73147036D01*
X148566896Y-73491167D01*
X148546496Y-73829067D01*
X148526302Y-74155251D01*
X148506637Y-74464239D01*
X148487820Y-74750549D01*
X148470172Y-75008697D01*
X148454013Y-75233203D01*
X148439664Y-75418584D01*
X148427447Y-75559359D01*
X148417680Y-75650044D01*
X148410685Y-75685159D01*
X148391255Y-75688409D01*
X148326595Y-75678480D01*
X148236502Y-75653854D01*
X148221083Y-75649129D01*
X148060083Y-75622401D01*
X147906984Y-75634007D01*
X147776999Y-75681004D01*
X147685340Y-75760450D01*
X147678831Y-75769546D01*
X147641476Y-75814660D01*
X147601071Y-75836320D01*
X147538401Y-75839912D01*
X147434251Y-75830820D01*
X147310443Y-75816970D01*
X147194244Y-75799594D01*
X147119266Y-75780122D01*
X147074292Y-75755399D01*
X147048099Y-75722270D01*
X147035889Y-75696462D01*
X147035713Y-75662510D01*
X147074440Y-75639359D01*
X147162856Y-75617130D01*
X147223087Y-75600775D01*
X147244840Y-75576011D01*
X147228176Y-75529480D01*
X147220906Y-75517217D01*
X147173403Y-75454854D01*
X147098870Y-75368978D01*
X147009939Y-75274358D01*
X146825520Y-75085623D01*
X146846247Y-74909267D01*
X146851224Y-74873855D01*
X146869315Y-74794902D01*
X146900973Y-74706534D01*
X146950880Y-74598129D01*
X147023717Y-74459064D01*
X147124167Y-74278717D01*
X147133252Y-74262629D01*
X147200290Y-74140644D01*
X147265488Y-74015088D01*
X147331789Y-73879263D01*
X147402136Y-73726473D01*
X147479474Y-73550021D01*
X147566746Y-73343209D01*
X147666896Y-73099342D01*
X147782868Y-72811721D01*
X147917604Y-72473651D01*
X148453849Y-71122779D01*
X148481230Y-70786558D01*
X148490349Y-70669645D01*
X148498378Y-70554367D01*
X148502765Y-70474786D01*
X148502721Y-70443507D01*
X148500034Y-70442782D01*
X148462180Y-70464610D01*
X148384506Y-70524848D01*
X148270489Y-70620287D01*
X148123609Y-70747716D01*
X147947342Y-70903927D01*
X147745167Y-71085710D01*
X147520562Y-71289855D01*
X147277004Y-71513151D01*
X147017971Y-71752391D01*
X146746943Y-72004364D01*
X146467395Y-72265859D01*
X146182808Y-72533669D01*
X145896657Y-72804582D01*
X145612422Y-73075390D01*
X145333580Y-73342882D01*
X145063610Y-73603850D01*
X144805988Y-73855082D01*
X144412758Y-74240469D01*
X144431237Y-73904248D01*
X144435243Y-73794565D01*
X144430652Y-73589822D01*
X144410170Y-73416952D01*
X144375190Y-73285331D01*
X144327108Y-73204335D01*
X144319651Y-73201065D01*
X144285331Y-73213809D01*
X144225341Y-73258849D01*
X144135910Y-73339501D01*
X144013267Y-73459084D01*
X143853643Y-73620915D01*
X143739934Y-73736793D01*
X143611492Y-73864426D01*
X143517255Y-73952853D01*
X143453182Y-74005612D01*
X143415227Y-74026237D01*
X143399347Y-74018267D01*
X143396551Y-74008068D01*
X143380204Y-73935305D01*
X143362799Y-73843116D01*
X143357987Y-73816774D01*
X143313390Y-73652611D01*
X143252445Y-73525651D01*
X143180610Y-73447736D01*
X143156018Y-73432573D01*
X143127986Y-73424903D01*
X143099507Y-73439324D01*
X143062884Y-73483449D01*
X143010419Y-73564894D01*
X142934416Y-73691273D01*
X142873518Y-73791924D01*
X142809851Y-73893782D01*
X142762611Y-73965479D01*
X142739041Y-73995727D01*
X142717949Y-73992918D01*
X142645496Y-73973291D01*
X142529611Y-73937940D01*
X142378367Y-73889414D01*
X142199835Y-73830261D01*
X142002086Y-73763030D01*
X141954276Y-73746579D01*
X141543137Y-73605098D01*
X141185701Y-73482138D01*
X140878249Y-73376519D01*
X140617061Y-73287061D01*
X140398418Y-73212584D01*
X140218599Y-73151906D01*
X140073885Y-73103849D01*
X139960555Y-73067232D01*
X139874890Y-73040874D01*
X139813170Y-73023596D01*
X139771675Y-73014218D01*
X139746685Y-73011558D01*
X139734480Y-73014437D01*
X139731341Y-73021675D01*
X139733547Y-73032091D01*
X139737379Y-73044506D01*
X139747962Y-73071251D01*
X139784442Y-73149236D01*
X139842466Y-73267093D01*
X139917906Y-73416577D01*
X140006630Y-73589442D01*
X140104510Y-73777445D01*
X140454635Y-74445347D01*
X140402945Y-74553742D01*
X140351255Y-74662137D01*
X140042067Y-74643300D01*
X139988498Y-74640331D01*
X139813757Y-74636974D01*
X139671808Y-74647320D01*
X139541133Y-74672629D01*
X139349386Y-74720794D01*
X139410550Y-74877984D01*
X139432403Y-74932334D01*
X139483796Y-75051259D01*
X139530583Y-75149795D01*
X139589452Y-75264416D01*
X137547767Y-75264416D01*
X135506083Y-75264416D01*
X135418231Y-75172719D01*
X135330380Y-75081022D01*
X137217782Y-75081022D01*
X139105183Y-75081022D01*
X139004607Y-74940973D01*
X139000970Y-74935939D01*
X138927075Y-74840191D01*
X138832135Y-74725278D01*
X138735748Y-74614965D01*
X138567465Y-74429006D01*
X139302692Y-74448446D01*
X139322171Y-74448959D01*
X139554656Y-74454530D01*
X139734210Y-74457374D01*
X139868420Y-74457239D01*
X139964876Y-74453874D01*
X140031166Y-74447026D01*
X140074880Y-74436445D01*
X140103607Y-74421877D01*
X140169294Y-74375868D01*
X140073938Y-74220895D01*
X140059031Y-74196242D01*
X140005169Y-74104557D01*
X139929738Y-73973967D01*
X139838552Y-73814613D01*
X139737424Y-73636639D01*
X139632170Y-73450187D01*
X139285757Y-72834452D01*
X139369323Y-72815144D01*
X139418278Y-72807120D01*
X139520948Y-72797555D01*
X139636282Y-72792444D01*
X139665306Y-72792495D01*
X139714678Y-72795833D01*
X139771899Y-72804748D01*
X139842452Y-72821020D01*
X139931818Y-72846429D01*
X140045481Y-72882756D01*
X140188921Y-72931779D01*
X140367622Y-72995280D01*
X140587065Y-73075037D01*
X140852733Y-73172831D01*
X141170108Y-73290442D01*
X141285158Y-73333197D01*
X141599621Y-73450176D01*
X141863472Y-73547522D01*
X142081963Y-73625892D01*
X142260350Y-73685945D01*
X142403884Y-73728340D01*
X142517818Y-73753735D01*
X142607407Y-73762791D01*
X142677902Y-73756164D01*
X142734558Y-73734515D01*
X142782627Y-73698501D01*
X142827363Y-73648782D01*
X142874019Y-73586015D01*
X142927847Y-73510861D01*
X142959686Y-73467247D01*
X143027281Y-73374967D01*
X143076880Y-73307700D01*
X143099496Y-73277653D01*
X143111656Y-73282509D01*
X143158071Y-73321872D01*
X143229874Y-73391979D01*
X143317697Y-73483971D01*
X143375566Y-73545689D01*
X143455217Y-73628073D01*
X143513016Y-73684587D01*
X143539304Y-73705571D01*
X143563685Y-73684919D01*
X143623007Y-73626361D01*
X143710373Y-73536882D01*
X143818963Y-73423469D01*
X143941953Y-73293113D01*
X144062690Y-73164970D01*
X144172446Y-73049843D01*
X144261369Y-72958006D01*
X144322526Y-72896618D01*
X144348984Y-72872836D01*
X144356533Y-72878145D01*
X144384366Y-72925610D01*
X144424501Y-73011916D01*
X144471011Y-73124825D01*
X144482048Y-73153421D01*
X144535848Y-73312231D01*
X144564260Y-73445974D01*
X144572577Y-73578281D01*
X144572624Y-73771929D01*
X144705420Y-73697708D01*
X144713948Y-73692160D01*
X144769713Y-73647806D01*
X144865231Y-73565936D01*
X144996827Y-73449885D01*
X145160829Y-73302986D01*
X145353561Y-73128574D01*
X145571352Y-72929982D01*
X145810527Y-72710544D01*
X146067411Y-72473595D01*
X146338333Y-72222468D01*
X146619617Y-71960498D01*
X146706043Y-71879856D01*
X146984435Y-71620636D01*
X147251181Y-71373064D01*
X147502621Y-71140492D01*
X147735093Y-70926272D01*
X147944937Y-70733756D01*
X148128493Y-70566297D01*
X148282100Y-70427246D01*
X148402099Y-70319956D01*
X148484828Y-70247780D01*
X148526626Y-70214068D01*
X148548779Y-70199461D01*
X148604989Y-70166738D01*
X148644021Y-70159550D01*
X148670069Y-70184992D01*
G37*
G36*
X150315415Y-79209819D02*
G01*
X150335804Y-79308927D01*
X150367498Y-79436607D01*
X150412324Y-79602929D01*
X150472108Y-79817964D01*
X150530199Y-80031356D01*
X150591197Y-80277214D01*
X150600328Y-80321120D01*
X150638126Y-80502872D01*
X150672075Y-80719900D01*
X150694134Y-80939867D01*
X150705395Y-81174345D01*
X150706946Y-81434903D01*
X150699878Y-81733112D01*
X150685280Y-82080541D01*
X150678036Y-82223713D01*
X150666283Y-82428708D01*
X150654162Y-82612073D01*
X150642395Y-82763944D01*
X150636063Y-82829398D01*
X150631704Y-82874461D01*
X150622811Y-82933760D01*
X150616904Y-82960411D01*
X150614309Y-83006842D01*
X150626295Y-83059417D01*
X150657376Y-83129523D01*
X150712065Y-83228545D01*
X150794875Y-83367872D01*
X150904144Y-83554040D01*
X151022891Y-83776661D01*
X151046373Y-83830026D01*
X151110532Y-83975835D01*
X151171289Y-84165466D01*
X151209381Y-84359461D01*
X151229029Y-84571724D01*
X151234453Y-84816161D01*
X151232280Y-84977224D01*
X151225984Y-85155314D01*
X151216587Y-85315515D01*
X151205112Y-85436211D01*
X151196804Y-85488708D01*
X151156370Y-85654399D01*
X151096665Y-85831096D01*
X151024945Y-86000960D01*
X150948468Y-86146154D01*
X150874491Y-86248838D01*
X150859184Y-86265115D01*
X150751750Y-86373599D01*
X150621458Y-86497846D01*
X150477836Y-86629519D01*
X150330413Y-86760279D01*
X150188718Y-86881790D01*
X150062279Y-86985712D01*
X149960625Y-87063708D01*
X149893284Y-87107440D01*
X149853484Y-87128143D01*
X149786515Y-87170711D01*
X149759567Y-87209456D01*
X149760640Y-87257999D01*
X149763627Y-87276078D01*
X149764239Y-87314299D01*
X149752993Y-87359983D01*
X149725347Y-87424579D01*
X149676762Y-87519534D01*
X149602699Y-87656294D01*
X149559567Y-87734855D01*
X149504243Y-87830536D01*
X149465757Y-87881878D01*
X149436257Y-87894773D01*
X149407887Y-87875116D01*
X149372792Y-87828798D01*
X149369610Y-87824351D01*
X149332640Y-87779856D01*
X149295788Y-87759794D01*
X149250338Y-87767877D01*
X149187574Y-87807816D01*
X149098782Y-87883324D01*
X148975247Y-87998112D01*
X148901475Y-88067966D01*
X148825905Y-88134179D01*
X148778677Y-88155096D01*
X148749016Y-88127385D01*
X148726147Y-88047711D01*
X148699292Y-87912741D01*
X148664831Y-87738804D01*
X148342750Y-87757043D01*
X148020669Y-87775282D01*
X148095643Y-87625325D01*
X148113043Y-87590289D01*
X148168568Y-87469319D01*
X148192752Y-87385825D01*
X148184716Y-87327129D01*
X148143581Y-87280554D01*
X148068469Y-87233419D01*
X148014973Y-87205605D01*
X147928212Y-87168831D01*
X147869174Y-87154428D01*
X147835005Y-87164306D01*
X147763073Y-87206769D01*
X147681989Y-87271349D01*
X147675444Y-87277056D01*
X147601729Y-87331176D01*
X147485991Y-87406176D01*
X147338858Y-87495572D01*
X147170958Y-87592883D01*
X146992921Y-87691625D01*
X146433073Y-87994982D01*
X145712789Y-88667424D01*
X145609072Y-88764130D01*
X145441512Y-88919817D01*
X145291358Y-89058655D01*
X145164051Y-89175652D01*
X145065029Y-89265817D01*
X144999732Y-89324159D01*
X144973599Y-89345689D01*
X144958392Y-89335568D01*
X144911319Y-89286752D01*
X144841977Y-89206436D01*
X144759107Y-89104449D01*
X144743010Y-89084022D01*
X144647152Y-88954954D01*
X144579080Y-88842541D01*
X144525961Y-88722706D01*
X144474959Y-88571372D01*
X144386398Y-88285355D01*
X144196779Y-88285089D01*
X144116141Y-88283672D01*
X143973261Y-88276748D01*
X143850926Y-88266050D01*
X143694692Y-88247277D01*
X143465865Y-88656027D01*
X143429502Y-88721404D01*
X143324170Y-88913996D01*
X143207774Y-89130425D01*
X143092077Y-89348719D01*
X142988843Y-89546911D01*
X142931294Y-89656280D01*
X142833507Y-89833208D01*
X142736429Y-89999391D01*
X142648760Y-90140097D01*
X142579199Y-90240595D01*
X142417750Y-90452144D01*
X142041013Y-90453828D01*
X141664276Y-90455511D01*
X141444984Y-90328530D01*
X141308988Y-90244991D01*
X140999333Y-90022335D01*
X140692297Y-89760386D01*
X140401765Y-89472458D01*
X140141623Y-89171866D01*
X139925757Y-88871921D01*
X139904962Y-88839359D01*
X139814031Y-88692152D01*
X139748230Y-88572110D01*
X139698952Y-88460155D01*
X139657592Y-88337210D01*
X139615545Y-88184196D01*
X139599718Y-88121391D01*
X139554592Y-87906518D01*
X139525921Y-87690982D01*
X139509401Y-87444801D01*
X139507589Y-87402000D01*
X139502784Y-87233796D01*
X139505220Y-87097252D01*
X139516765Y-86969620D01*
X139539285Y-86828151D01*
X139574650Y-86650096D01*
X139580953Y-86620026D01*
X139613175Y-86473266D01*
X139642595Y-86349914D01*
X139666188Y-86262156D01*
X139680926Y-86222178D01*
X139693245Y-86188466D01*
X139708507Y-86108334D01*
X139720688Y-86004197D01*
X139736808Y-85816782D01*
X139523918Y-85606844D01*
X139387308Y-85464923D01*
X139182823Y-85217300D01*
X139000646Y-84945319D01*
X138832912Y-84636727D01*
X138671754Y-84279270D01*
X138608633Y-84126696D01*
X138541387Y-83962397D01*
X138483899Y-83820081D01*
X138440796Y-83711214D01*
X138416704Y-83647259D01*
X138410446Y-83630330D01*
X138372622Y-83555182D01*
X138334785Y-83512597D01*
X138330140Y-83510395D01*
X138277109Y-83489734D01*
X138177727Y-83453550D01*
X138041383Y-83405184D01*
X137877467Y-83347973D01*
X137695367Y-83285255D01*
X137654554Y-83271218D01*
X137328935Y-83155114D01*
X136970538Y-83021102D01*
X136594536Y-82875249D01*
X136524803Y-82847309D01*
X140847266Y-82847309D01*
X140868516Y-82892631D01*
X140919175Y-82966368D01*
X141002306Y-83072599D01*
X141120973Y-83215406D01*
X141278238Y-83398869D01*
X141312873Y-83438763D01*
X141451489Y-83594987D01*
X141560953Y-83711011D01*
X141648154Y-83793453D01*
X141719977Y-83848928D01*
X141783310Y-83884052D01*
X141831622Y-83905278D01*
X141898074Y-83933845D01*
X141926365Y-83945042D01*
X141926466Y-83944614D01*
X141924070Y-83909717D01*
X141916697Y-83827198D01*
X141905512Y-83708838D01*
X141891679Y-83566420D01*
X141876365Y-83411724D01*
X141860733Y-83256534D01*
X141845950Y-83112630D01*
X141841071Y-83066463D01*
X142052173Y-83066463D01*
X142055283Y-83179554D01*
X142069869Y-83298069D01*
X142088073Y-83394381D01*
X142121293Y-83555472D01*
X142158688Y-83724162D01*
X142197042Y-83886939D01*
X142211564Y-83944614D01*
X142233137Y-84030293D01*
X142263758Y-84140709D01*
X142285688Y-84204678D01*
X142318375Y-84250992D01*
X142410223Y-84324873D01*
X142541130Y-84396346D01*
X142698114Y-84458713D01*
X142868190Y-84505273D01*
X142961698Y-84522371D01*
X143126567Y-84544018D01*
X143305279Y-84559742D01*
X143482980Y-84568874D01*
X143644816Y-84570744D01*
X143775935Y-84564685D01*
X143861482Y-84550025D01*
X143899431Y-84535758D01*
X143943321Y-84502228D01*
X143945427Y-84452735D01*
X143937512Y-84412540D01*
X143920222Y-84318674D01*
X143895454Y-84181247D01*
X143864769Y-84008988D01*
X143829730Y-83810627D01*
X143791899Y-83594892D01*
X143756179Y-83391493D01*
X143722081Y-83199403D01*
X143692655Y-83035784D01*
X143669343Y-82908578D01*
X143653586Y-82825726D01*
X143650219Y-82810515D01*
X143791006Y-82810515D01*
X143793442Y-82820439D01*
X143806605Y-82882031D01*
X143828525Y-82989059D01*
X143857314Y-83131943D01*
X143891085Y-83301102D01*
X143927951Y-83486959D01*
X143966025Y-83679931D01*
X144003419Y-83870441D01*
X144038246Y-84048909D01*
X144068619Y-84205754D01*
X144092650Y-84331396D01*
X144108453Y-84416257D01*
X144114140Y-84450757D01*
X144114388Y-84452735D01*
X144114733Y-84455490D01*
X144122011Y-84459975D01*
X144144933Y-84460472D01*
X144192477Y-84456071D01*
X144273622Y-84445867D01*
X144397345Y-84428951D01*
X144572624Y-84404416D01*
X144744443Y-84375666D01*
X144945165Y-84333627D01*
X145159124Y-84281930D01*
X145378225Y-84223153D01*
X145594373Y-84159873D01*
X145799476Y-84094670D01*
X145985437Y-84030120D01*
X146144164Y-83968803D01*
X146267562Y-83913296D01*
X146347536Y-83866178D01*
X146375993Y-83830026D01*
X146371529Y-83805853D01*
X146352581Y-83728031D01*
X146320844Y-83605773D01*
X146278572Y-83447319D01*
X146228016Y-83260907D01*
X146171428Y-83054779D01*
X146111063Y-82837174D01*
X146049171Y-82616332D01*
X145988006Y-82400493D01*
X145929821Y-82197896D01*
X145926596Y-82189768D01*
X145908517Y-82176616D01*
X145869887Y-82178609D01*
X145801825Y-82198048D01*
X145695453Y-82237236D01*
X145541889Y-82298475D01*
X145411354Y-82347654D01*
X145213991Y-82413952D01*
X144988396Y-82483389D01*
X144748873Y-82552029D01*
X144509727Y-82615936D01*
X144285265Y-82671174D01*
X144089791Y-82713808D01*
X143937611Y-82739899D01*
X143922800Y-82741893D01*
X143834452Y-82758397D01*
X143794340Y-82779432D01*
X143791006Y-82810515D01*
X143650219Y-82810515D01*
X143646822Y-82795167D01*
X143635417Y-82795097D01*
X143573857Y-82800397D01*
X143468229Y-82811558D01*
X143328993Y-82827453D01*
X143166607Y-82846955D01*
X143119520Y-82852561D01*
X142919672Y-82873207D01*
X142716123Y-82889972D01*
X142530279Y-82901258D01*
X142383542Y-82905465D01*
X142074244Y-82905812D01*
X142056471Y-83015338D01*
X142052173Y-83066463D01*
X141841071Y-83066463D01*
X141833181Y-82991796D01*
X141823590Y-82905812D01*
X141806467Y-82901505D01*
X141739553Y-82898263D01*
X141633925Y-82898000D01*
X141502318Y-82900910D01*
X141317969Y-82902394D01*
X141152724Y-82890818D01*
X141021989Y-82864136D01*
X140955974Y-82846032D01*
X140882876Y-82829880D01*
X140849901Y-82828214D01*
X140847266Y-82847309D01*
X136524803Y-82847309D01*
X136216105Y-82723622D01*
X135850419Y-82572287D01*
X135512651Y-82427311D01*
X135217976Y-82294762D01*
X135167084Y-82271254D01*
X134963305Y-82180280D01*
X134801519Y-82116032D01*
X134671895Y-82076877D01*
X134564600Y-82061177D01*
X134469804Y-82067299D01*
X134377675Y-82093606D01*
X134278381Y-82138462D01*
X134275652Y-82139839D01*
X134179924Y-82187008D01*
X134107625Y-82220581D01*
X134074217Y-82233369D01*
X134067990Y-82205733D01*
X134062733Y-82128709D01*
X134059112Y-82014227D01*
X134057676Y-81874223D01*
X134057288Y-81515078D01*
X133690889Y-81302548D01*
X133647445Y-81277215D01*
X133520521Y-81201537D01*
X133418001Y-81137915D01*
X133366465Y-81103690D01*
X133874669Y-81103690D01*
X133878621Y-81115691D01*
X133910613Y-81170757D01*
X133967767Y-81255385D01*
X134041670Y-81356820D01*
X134065405Y-81388929D01*
X134149929Y-81511683D01*
X134223610Y-81630463D01*
X134272699Y-81723450D01*
X134336729Y-81868199D01*
X134421593Y-81807770D01*
X134506456Y-81747342D01*
X135802897Y-82204856D01*
X135977923Y-82266636D01*
X136251239Y-82363164D01*
X136510698Y-82454861D01*
X136749001Y-82539144D01*
X136958848Y-82613430D01*
X137132941Y-82675136D01*
X137263981Y-82721678D01*
X137344668Y-82750473D01*
X137356945Y-82754871D01*
X137477812Y-82795732D01*
X137556871Y-82815327D01*
X137607572Y-82815865D01*
X137643361Y-82799556D01*
X137658280Y-82787559D01*
X137681052Y-82744783D01*
X137665262Y-82677780D01*
X137647866Y-82614018D01*
X137649180Y-82570140D01*
X137649322Y-82569921D01*
X137686195Y-82554555D01*
X137766592Y-82538173D01*
X137873355Y-82524285D01*
X137982274Y-82510860D01*
X138070922Y-82495285D01*
X138117986Y-82481169D01*
X138114511Y-82463967D01*
X138065480Y-82420814D01*
X137972263Y-82357380D01*
X137840539Y-82277826D01*
X137827492Y-82270268D01*
X137654001Y-82167645D01*
X137516097Y-82083157D01*
X146014913Y-82083157D01*
X146129858Y-82349298D01*
X146134201Y-82359467D01*
X146187453Y-82497373D01*
X146247279Y-82671501D01*
X146306670Y-82860584D01*
X146358617Y-83043357D01*
X146370670Y-83088632D01*
X146414450Y-83252438D01*
X146454661Y-83401964D01*
X146487277Y-83522273D01*
X146508268Y-83598426D01*
X146544104Y-83725576D01*
X146853551Y-83513940D01*
X146949354Y-83445881D01*
X147115364Y-83319340D01*
X147278616Y-83186138D01*
X147414598Y-83065851D01*
X147666198Y-82829398D01*
X147615248Y-82477894D01*
X147612777Y-82461119D01*
X147581542Y-82278284D01*
X147541990Y-82085806D01*
X147497199Y-81895342D01*
X147450245Y-81718544D01*
X147404204Y-81567068D01*
X147362154Y-81452567D01*
X147327171Y-81386695D01*
X147321681Y-81380068D01*
X147304130Y-81364346D01*
X147280768Y-81358493D01*
X147244948Y-81365611D01*
X147190021Y-81388800D01*
X147109341Y-81431161D01*
X146996258Y-81495795D01*
X146844125Y-81585802D01*
X146646295Y-81704284D01*
X146014913Y-82083157D01*
X137516097Y-82083157D01*
X137485217Y-82064238D01*
X137329155Y-81965318D01*
X137193825Y-81876154D01*
X137087241Y-81802018D01*
X137017415Y-81748179D01*
X136992359Y-81719909D01*
X136994926Y-81716970D01*
X137039206Y-81699038D01*
X137131737Y-81670637D01*
X137263766Y-81634209D01*
X137426542Y-81592199D01*
X137611312Y-81547053D01*
X137663996Y-81534482D01*
X137846094Y-81490533D01*
X138005608Y-81451279D01*
X138133304Y-81419041D01*
X138219953Y-81396139D01*
X138256321Y-81384894D01*
X138261566Y-81379825D01*
X138250501Y-81362387D01*
X138201855Y-81335698D01*
X138110439Y-81297506D01*
X137971062Y-81245559D01*
X137778534Y-81177606D01*
X137658952Y-81134834D01*
X137546535Y-81091898D01*
X137467705Y-81058607D01*
X137434653Y-81039844D01*
X137434053Y-81038458D01*
X137440793Y-80996772D01*
X137467985Y-80917282D01*
X137510260Y-80815889D01*
X137600279Y-80615254D01*
X137474440Y-80507540D01*
X137348600Y-80399826D01*
X137445570Y-80279160D01*
X137489503Y-80223324D01*
X137522024Y-80175870D01*
X137538384Y-80137514D01*
X137534534Y-80108098D01*
X137506426Y-80087462D01*
X137450014Y-80075447D01*
X137361248Y-80071896D01*
X137236081Y-80076648D01*
X137070466Y-80089546D01*
X136860355Y-80110430D01*
X136601699Y-80139142D01*
X136290451Y-80175523D01*
X135922564Y-80219414D01*
X135895193Y-80222690D01*
X135601004Y-80257799D01*
X135324989Y-80290561D01*
X135073222Y-80320268D01*
X134851777Y-80346210D01*
X134666729Y-80367679D01*
X134524152Y-80383965D01*
X134430119Y-80394361D01*
X134390705Y-80398158D01*
X134373221Y-80402484D01*
X134316771Y-80448981D01*
X134253309Y-80536182D01*
X134191237Y-80651289D01*
X134138961Y-80781504D01*
X134126746Y-80815667D01*
X134067040Y-80926432D01*
X133981301Y-81003385D01*
X133956852Y-81020052D01*
X133898148Y-81068978D01*
X133874669Y-81103690D01*
X133366465Y-81103690D01*
X133349464Y-81092400D01*
X133324489Y-81071046D01*
X133325954Y-81068428D01*
X133364187Y-81047888D01*
X133443726Y-81016943D01*
X133550434Y-80981214D01*
X133776378Y-80910354D01*
X133846974Y-80702994D01*
X133917569Y-80495634D01*
X133842630Y-80434522D01*
X133814238Y-80410000D01*
X133790973Y-80376319D01*
X133813538Y-80357400D01*
X133829353Y-80353722D01*
X133900607Y-80340649D01*
X134020780Y-80320200D01*
X134182498Y-80293529D01*
X134378389Y-80261791D01*
X134601081Y-80226142D01*
X134843200Y-80187734D01*
X135097374Y-80147724D01*
X135356230Y-80107265D01*
X135612394Y-80067513D01*
X135858496Y-80029622D01*
X136087160Y-79994746D01*
X136291016Y-79964041D01*
X136462689Y-79938660D01*
X136594808Y-79919759D01*
X136679999Y-79908492D01*
X136710710Y-79904751D01*
X136866090Y-79883888D01*
X137031182Y-79859109D01*
X137194276Y-79832468D01*
X137343661Y-79806021D01*
X137467628Y-79781822D01*
X137554465Y-79761926D01*
X137592463Y-79748387D01*
X137598254Y-79733661D01*
X137581675Y-79689523D01*
X137557348Y-79645319D01*
X137544976Y-79608843D01*
X140225259Y-79608843D01*
X140228264Y-79644222D01*
X140261898Y-79680257D01*
X140265188Y-79683220D01*
X140304104Y-79709949D01*
X140337372Y-79699044D01*
X140385695Y-79644530D01*
X140454328Y-79558880D01*
X140432638Y-79681143D01*
X140427937Y-79705208D01*
X140405781Y-79785571D01*
X140382760Y-79832442D01*
X140381026Y-79834656D01*
X140367633Y-79883625D01*
X140358164Y-79973919D01*
X140354573Y-80087830D01*
X140354819Y-80110590D01*
X140378137Y-80335245D01*
X140434385Y-80574532D01*
X140516382Y-80803554D01*
X140616946Y-80997412D01*
X140701963Y-81109321D01*
X140829506Y-81243240D01*
X140975036Y-81372405D01*
X140984974Y-81379825D01*
X141121166Y-81481506D01*
X141250506Y-81555233D01*
X141251276Y-81555572D01*
X141361012Y-81590221D01*
X141513027Y-81614499D01*
X141716520Y-81629880D01*
X141884236Y-81635215D01*
X142163475Y-81626320D01*
X142413351Y-81590201D01*
X142651785Y-81523730D01*
X142896697Y-81423776D01*
X142899091Y-81422667D01*
X142989463Y-81377662D01*
X143040633Y-81335883D01*
X143069106Y-81276577D01*
X143091388Y-81178993D01*
X143100354Y-81134090D01*
X147449197Y-81134090D01*
X147565102Y-81416281D01*
X147593278Y-81489307D01*
X147652576Y-81666299D01*
X147707816Y-81858216D01*
X147749924Y-82034693D01*
X147772918Y-82147134D01*
X147801302Y-82286640D01*
X147824375Y-82400832D01*
X147838632Y-82472427D01*
X147858424Y-82573941D01*
X148009623Y-82398731D01*
X148053697Y-82344669D01*
X148127690Y-82234607D01*
X148189313Y-82110241D01*
X148240015Y-81964889D01*
X148281246Y-81791867D01*
X148314456Y-81584490D01*
X148341095Y-81336074D01*
X148362614Y-81039935D01*
X148380462Y-80689390D01*
X148381133Y-80673955D01*
X148389368Y-80472370D01*
X148391484Y-80321120D01*
X148383246Y-80219692D01*
X148360419Y-80167572D01*
X148318767Y-80164247D01*
X148254056Y-80209205D01*
X148162051Y-80301930D01*
X148038516Y-80441911D01*
X147879218Y-80628633D01*
X147555913Y-81008653D01*
X147449197Y-81134090D01*
X143100354Y-81134090D01*
X143125401Y-81008653D01*
X142786858Y-80817064D01*
X142448316Y-80625474D01*
X142407882Y-80758571D01*
X142367449Y-80891667D01*
X142270337Y-80831182D01*
X142179516Y-80758086D01*
X142116281Y-80648360D01*
X142110800Y-80582828D01*
X145492471Y-80582828D01*
X145789046Y-80580296D01*
X145838708Y-80579771D01*
X145961079Y-80575855D01*
X146057096Y-80564789D01*
X146147184Y-80541871D01*
X146251769Y-80502399D01*
X146391276Y-80441674D01*
X146415954Y-80430620D01*
X146567865Y-80357529D01*
X146685775Y-80287509D01*
X146790849Y-80206475D01*
X146904256Y-80100342D01*
X147028275Y-79974573D01*
X147127242Y-79862829D01*
X147194040Y-79766280D01*
X147235966Y-79671854D01*
X147260315Y-79566479D01*
X147274380Y-79437080D01*
X147277920Y-79368716D01*
X147278498Y-79208053D01*
X147271754Y-79029050D01*
X147258450Y-78859277D01*
X147247048Y-78753180D01*
X147231001Y-78635505D01*
X147209724Y-78545702D01*
X147176428Y-78464167D01*
X147124328Y-78371302D01*
X147046638Y-78247503D01*
X146962106Y-78115200D01*
X146864863Y-77965486D01*
X146792853Y-77858705D01*
X146742211Y-77789378D01*
X146709075Y-77752026D01*
X146689581Y-77741170D01*
X146673785Y-77762473D01*
X146634506Y-77832164D01*
X146576057Y-77943242D01*
X146502199Y-78088409D01*
X146416692Y-78260368D01*
X146323300Y-78451820D01*
X145980234Y-79161528D01*
X146008661Y-79390770D01*
X146024455Y-79519940D01*
X146034568Y-79622546D01*
X146034090Y-79684029D01*
X146021218Y-79714914D01*
X145994151Y-79725726D01*
X145951086Y-79726991D01*
X145913120Y-79730844D01*
X145873255Y-79750421D01*
X145829670Y-79795141D01*
X145773554Y-79874348D01*
X145696093Y-79997385D01*
X145654745Y-80066079D01*
X145578818Y-80206886D01*
X145533080Y-80321689D01*
X145511128Y-80425303D01*
X145492471Y-80582828D01*
X142110800Y-80582828D01*
X142104718Y-80510098D01*
X142114464Y-80391521D01*
X141486685Y-79972926D01*
X141378448Y-79900984D01*
X141194084Y-79779440D01*
X141020802Y-79666373D01*
X140868509Y-79568195D01*
X140747115Y-79491320D01*
X140666530Y-79442159D01*
X140619637Y-79414999D01*
X140535773Y-79369858D01*
X140481830Y-79351203D01*
X140442036Y-79355237D01*
X140400621Y-79378167D01*
X140393864Y-79382840D01*
X140327072Y-79446622D01*
X140266911Y-79528341D01*
X140253646Y-79551007D01*
X140225259Y-79608843D01*
X137544976Y-79608843D01*
X137531653Y-79569565D01*
X137524939Y-79553772D01*
X137483467Y-79498068D01*
X137404256Y-79413014D01*
X137285903Y-79297318D01*
X137127002Y-79149689D01*
X136926149Y-78968834D01*
X136681939Y-78753461D01*
X136392967Y-78502278D01*
X136057829Y-78213995D01*
X135683495Y-77893166D01*
X135189521Y-77469221D01*
X134742240Y-77084618D01*
X134341620Y-76739328D01*
X133987629Y-76433324D01*
X133680235Y-76166577D01*
X133419405Y-75939058D01*
X133205107Y-75750740D01*
X133037307Y-75601594D01*
X132915974Y-75491592D01*
X132841076Y-75420706D01*
X132812579Y-75388908D01*
X132822260Y-75369817D01*
X132871763Y-75328300D01*
X132948618Y-75276885D01*
X133037191Y-75225167D01*
X133121845Y-75182740D01*
X133186944Y-75159198D01*
X133263111Y-75141502D01*
X133332130Y-75123360D01*
X133363718Y-75118621D01*
X133383790Y-75138147D01*
X133363149Y-75183871D01*
X133304088Y-75245783D01*
X133289603Y-75258904D01*
X133243308Y-75328198D01*
X133256743Y-75393593D01*
X133330488Y-75459771D01*
X133335420Y-75462521D01*
X133388052Y-75487028D01*
X133490993Y-75532452D01*
X133639405Y-75596759D01*
X133828453Y-75677919D01*
X134053303Y-75773901D01*
X134309117Y-75882671D01*
X134591061Y-76002199D01*
X134894298Y-76130453D01*
X135213994Y-76265402D01*
X135545312Y-76405013D01*
X135883417Y-76547255D01*
X136223472Y-76690097D01*
X136560644Y-76831507D01*
X136890095Y-76969452D01*
X137206990Y-77101902D01*
X137506494Y-77226825D01*
X137783770Y-77342188D01*
X138033984Y-77445962D01*
X138252299Y-77536113D01*
X138433880Y-77610610D01*
X138573891Y-77667422D01*
X138667497Y-77704516D01*
X138709861Y-77719862D01*
X138792105Y-77740483D01*
X138745436Y-77603517D01*
X138743859Y-77598956D01*
X138723134Y-77550178D01*
X138692214Y-77500619D01*
X138644864Y-77444015D01*
X138574853Y-77374103D01*
X138475944Y-77284621D01*
X138341905Y-77169307D01*
X138166502Y-77021896D01*
X138084224Y-76953022D01*
X137939872Y-76831458D01*
X137816081Y-76726266D01*
X137719467Y-76643117D01*
X137656647Y-76587684D01*
X137634236Y-76565637D01*
X137648646Y-76568839D01*
X137710468Y-76591363D01*
X137812525Y-76631522D01*
X137945572Y-76685655D01*
X138100361Y-76750103D01*
X138191017Y-76788210D01*
X138362036Y-76859719D01*
X138487072Y-76910969D01*
X138573295Y-76944481D01*
X138627875Y-76962776D01*
X138657984Y-76968375D01*
X138670791Y-76963797D01*
X138673466Y-76951565D01*
X138661066Y-76933261D01*
X138609822Y-76878887D01*
X138525805Y-76796940D01*
X138416535Y-76694709D01*
X138289536Y-76579484D01*
X138191124Y-76490764D01*
X138078954Y-76387682D01*
X137990961Y-76304506D01*
X137934364Y-76248087D01*
X137916378Y-76225274D01*
X137941941Y-76225286D01*
X138012088Y-76237012D01*
X138109274Y-76258474D01*
X138291396Y-76302447D01*
X138483229Y-76103249D01*
X138675061Y-75904051D01*
X140197994Y-76970423D01*
X141720928Y-78036795D01*
X142008208Y-78106742D01*
X142122117Y-78134942D01*
X142244661Y-78168335D01*
X142324922Y-78197139D01*
X142373228Y-78226430D01*
X142399908Y-78261282D01*
X142415290Y-78306772D01*
X142418648Y-78373839D01*
X142374804Y-78437482D01*
X142363514Y-78447323D01*
X142333709Y-78483571D01*
X142333590Y-78527212D01*
X142361166Y-78602280D01*
X142418040Y-78694133D01*
X142512147Y-78777001D01*
X142567002Y-78813903D01*
X142606781Y-78867575D01*
X142616426Y-78946538D01*
X142616426Y-79054548D01*
X142451306Y-79054548D01*
X142373894Y-79055794D01*
X142311271Y-79065580D01*
X142277694Y-79092309D01*
X142254885Y-79144337D01*
X142248862Y-79162314D01*
X142240346Y-79216362D01*
X142263628Y-79259516D01*
X142328341Y-79314028D01*
X142411131Y-79390405D01*
X142495258Y-79521546D01*
X142524730Y-79661795D01*
X142525022Y-79672846D01*
X142532459Y-79708888D01*
X142555241Y-79746733D01*
X142600410Y-79792893D01*
X142675009Y-79853880D01*
X142786082Y-79936205D01*
X142940671Y-80046381D01*
X142954551Y-80056180D01*
X143115016Y-80167440D01*
X143233552Y-80244801D01*
X143316051Y-80291634D01*
X143368404Y-80311309D01*
X143396500Y-80307197D01*
X143398649Y-80305292D01*
X143410429Y-80277092D01*
X143400326Y-80226808D01*
X143365010Y-80144414D01*
X143301154Y-80019880D01*
X143165921Y-79765667D01*
X143280885Y-79746665D01*
X143306566Y-79742886D01*
X143421606Y-79731909D01*
X143539214Y-79727328D01*
X143682580Y-79726991D01*
X143608053Y-79507872D01*
X143601064Y-79487089D01*
X143569003Y-79384171D01*
X143549621Y-79308564D01*
X143546893Y-79275385D01*
X143551386Y-79273803D01*
X143600604Y-79273810D01*
X143690582Y-79281295D01*
X143806077Y-79295099D01*
X144051892Y-79328180D01*
X144579707Y-79010541D01*
X144615114Y-78989263D01*
X144772073Y-78895675D01*
X144908554Y-78815474D01*
X145016614Y-78753246D01*
X145088311Y-78713579D01*
X145115701Y-78701059D01*
X145116240Y-78702657D01*
X145112347Y-78742923D01*
X145098312Y-78824965D01*
X145076703Y-78933489D01*
X145066934Y-78980579D01*
X145048233Y-79091497D01*
X145050832Y-79163829D01*
X145082441Y-79202797D01*
X145150767Y-79213624D01*
X145263521Y-79201532D01*
X145428410Y-79171743D01*
X145530743Y-79151021D01*
X145652419Y-79122857D01*
X145742570Y-79097752D01*
X145786843Y-79079405D01*
X145803271Y-79056436D01*
X145845629Y-78984319D01*
X145908034Y-78871437D01*
X145986284Y-78725547D01*
X146076174Y-78554406D01*
X146173502Y-78365772D01*
X146184723Y-78343813D01*
X146314558Y-78085072D01*
X146416071Y-77872572D01*
X146491876Y-77700401D01*
X146544587Y-77562646D01*
X146576817Y-77453396D01*
X146583552Y-77425578D01*
X146611365Y-77325022D01*
X146635715Y-77257521D01*
X146651969Y-77236444D01*
X146661420Y-77253693D01*
X146677628Y-77318001D01*
X146691910Y-77410755D01*
X146710979Y-77516619D01*
X146746496Y-77590471D01*
X146810894Y-77655351D01*
X146819574Y-77662526D01*
X146867718Y-77697953D01*
X146917257Y-77720313D01*
X146983123Y-77732647D01*
X147080249Y-77737998D01*
X147223567Y-77739406D01*
X147536243Y-77740228D01*
X147598095Y-77618988D01*
X147635747Y-77552583D01*
X147694667Y-77486738D01*
X147775469Y-77446875D01*
X147897777Y-77419959D01*
X147916429Y-77416783D01*
X147987937Y-77399402D01*
X148014590Y-77374798D01*
X148009986Y-77332354D01*
X148007917Y-77326099D01*
X147984755Y-77284844D01*
X147937683Y-77226022D01*
X147862299Y-77145076D01*
X147754201Y-77037449D01*
X147608988Y-76898583D01*
X147422255Y-76723923D01*
X147200118Y-76517605D01*
X147365509Y-76517605D01*
X147441975Y-76516210D01*
X147503018Y-76505946D01*
X147555976Y-76477749D01*
X147617288Y-76422552D01*
X147703396Y-76331290D01*
X147875891Y-76144974D01*
X148052754Y-76250331D01*
X148154273Y-76302363D01*
X148303912Y-76362365D01*
X148446811Y-76404736D01*
X148491239Y-76414577D01*
X148580426Y-76431244D01*
X148659310Y-76437869D01*
X148745484Y-76434123D01*
X148856541Y-76419677D01*
X149010071Y-76394201D01*
X149137017Y-76372672D01*
X149257921Y-76352884D01*
X149345146Y-76339427D01*
X149385426Y-76334414D01*
X149384508Y-76349120D01*
X149349958Y-76396072D01*
X149287851Y-76464115D01*
X149160988Y-76594019D01*
X149204383Y-76820023D01*
X149208227Y-76839884D01*
X149229926Y-76946111D01*
X149247586Y-77023314D01*
X149257694Y-77055944D01*
X149259763Y-77055011D01*
X149292917Y-77025148D01*
X149362659Y-76957140D01*
X149464382Y-76855635D01*
X149593479Y-76725278D01*
X149745342Y-76570718D01*
X149915364Y-76396599D01*
X150098937Y-76207569D01*
X150930265Y-75349278D01*
X150930265Y-75110520D01*
X150930265Y-74871763D01*
X150143201Y-75238582D01*
X149912028Y-75346293D01*
X149638065Y-75473768D01*
X149411339Y-75578896D01*
X149227131Y-75663726D01*
X149080720Y-75730308D01*
X148967388Y-75780692D01*
X148882417Y-75816926D01*
X148821088Y-75841059D01*
X148778680Y-75855142D01*
X148750476Y-75861222D01*
X148731757Y-75861350D01*
X148717803Y-75857575D01*
X148717505Y-75857460D01*
X148689528Y-75844594D01*
X148672589Y-75829556D01*
X148669992Y-75810307D01*
X148685040Y-75784809D01*
X148721039Y-75751023D01*
X148781291Y-75706910D01*
X148869100Y-75650432D01*
X148987771Y-75579550D01*
X149140608Y-75492227D01*
X149330914Y-75386422D01*
X149561994Y-75260097D01*
X149837151Y-75111215D01*
X150159689Y-74937736D01*
X150532913Y-74737621D01*
X150636491Y-74682221D01*
X150833224Y-74577454D01*
X151019798Y-74478650D01*
X151185299Y-74391564D01*
X151318808Y-74321951D01*
X151409410Y-74275565D01*
X151628748Y-74165565D01*
X151644686Y-74248866D01*
X151653400Y-74302790D01*
X151667212Y-74406597D01*
X151680515Y-74523201D01*
X151691453Y-74614159D01*
X151703352Y-74686505D01*
X151712489Y-74714235D01*
X151737720Y-74717911D01*
X151812701Y-74731386D01*
X151923466Y-74752277D01*
X152056621Y-74777956D01*
X152198774Y-74805798D01*
X152336528Y-74833174D01*
X152456491Y-74857458D01*
X152545268Y-74876022D01*
X152589465Y-74886240D01*
X152590174Y-74886462D01*
X152597720Y-74903116D01*
X152570957Y-74940155D01*
X152505964Y-75001279D01*
X152398820Y-75090185D01*
X152245603Y-75210572D01*
X152151222Y-75284573D01*
X152030576Y-75382439D01*
X151934611Y-75464255D01*
X151871369Y-75523099D01*
X151848889Y-75552052D01*
X151849169Y-75553651D01*
X151872727Y-75592184D01*
X151928594Y-75665274D01*
X152008947Y-75763071D01*
X152105965Y-75875728D01*
X152361383Y-76166101D01*
X152157798Y-76181383D01*
X152023785Y-76198293D01*
X151882892Y-76238681D01*
X151755143Y-76307402D01*
X151630926Y-76411286D01*
X151500627Y-76557160D01*
X151354633Y-76751852D01*
X151312839Y-76811456D01*
X151216049Y-76957233D01*
X151129761Y-77101851D01*
X151046055Y-77259937D01*
X150957010Y-77446115D01*
X150854706Y-77675012D01*
X150769188Y-77865339D01*
X150681127Y-78052153D01*
X150597120Y-78222090D01*
X150523679Y-78361976D01*
X150467315Y-78458639D01*
X150443337Y-78496070D01*
X150381066Y-78601694D01*
X150343669Y-78690346D01*
X150322468Y-78787123D01*
X150308785Y-78917123D01*
X150303828Y-78983232D01*
X150301253Y-79057042D01*
X150304507Y-79129214D01*
X150315176Y-79208053D01*
X150315415Y-79209819D01*
G37*
D12*
%TO.C,R13*%
X130695276Y-148572500D02*
X131204724Y-148572500D01*
X130695276Y-147527500D02*
X131204724Y-147527500D01*
%TO.C,R21*%
X127882500Y-152585276D02*
X127882500Y-153094724D01*
X126837500Y-152585276D02*
X126837500Y-153094724D01*
%TO.C,R28*%
X144672500Y-104320276D02*
X144672500Y-104829724D01*
X143627500Y-104320276D02*
X143627500Y-104829724D01*
%TO.C,R12*%
X130479724Y-156072500D02*
X129970276Y-156072500D01*
X130479724Y-155027500D02*
X129970276Y-155027500D01*
%TO.C,R19*%
X143577500Y-108229724D02*
X143577500Y-107720276D01*
X144622500Y-108229724D02*
X144622500Y-107720276D01*
%TO.C,R29*%
X112740654Y-82949580D02*
X112380420Y-82589346D01*
X113479580Y-82210654D02*
X113119346Y-81850420D01*
%TO.C,R37*%
X110485654Y-84599580D02*
X110125420Y-84239346D01*
X111224580Y-83860654D02*
X110864346Y-83500420D01*
%TO.C,R18*%
X106579724Y-148362500D02*
X106070276Y-148362500D01*
X106579724Y-147317500D02*
X106070276Y-147317500D01*
%TO.C,R30*%
X110239346Y-89125420D02*
X110599580Y-89485654D01*
X109500420Y-89864346D02*
X109860654Y-90224580D01*
%TO.C,R17*%
X109762500Y-153705276D02*
X109762500Y-154214724D01*
X108717500Y-153705276D02*
X108717500Y-154214724D01*
%TO.C,R40*%
X107112500Y-154115276D02*
X107112500Y-154624724D01*
X106067500Y-154115276D02*
X106067500Y-154624724D01*
%TO.C,R20*%
X129852500Y-152575276D02*
X129852500Y-153084724D01*
X128807500Y-152575276D02*
X128807500Y-153084724D01*
%TD*%
%LPC*%
D13*
%TO.C,J3*%
X106225000Y-149415000D03*
X107075000Y-149415000D03*
X107925000Y-149415000D03*
X108775000Y-149415000D03*
X109625000Y-149415000D03*
X110475000Y-149415000D03*
X111325000Y-149415000D03*
X112175000Y-149415000D03*
X112175000Y-150765000D03*
X111325000Y-150765000D03*
X110475000Y-150765000D03*
X109625000Y-150765000D03*
X108775000Y-150765000D03*
X107925000Y-150765000D03*
X107075000Y-150765000D03*
X106225000Y-150765000D03*
D14*
X104875000Y-150395000D03*
D15*
X104875000Y-153775000D03*
D14*
X113525000Y-150395000D03*
D15*
X113525000Y-153775000D03*
%TD*%
D16*
%TO.C,J2*%
X112910000Y-137960000D03*
D17*
X112910000Y-140500000D03*
X112910000Y-143040000D03*
X112910000Y-145580000D03*
%TD*%
D18*
%TO.C,C46*%
X141420000Y-140590000D03*
D19*
X141420000Y-138090000D03*
%TD*%
D20*
%TO.C,R13*%
X130037500Y-148050000D03*
X131862500Y-148050000D03*
%TD*%
D21*
%TO.C,U8*%
X146753500Y-143750000D03*
X144721500Y-143750000D03*
X142689500Y-143750000D03*
X140657500Y-143750000D03*
X138625500Y-143750000D03*
X146753500Y-145782000D03*
X144721500Y-145782000D03*
X142689500Y-145782000D03*
X140657500Y-145782000D03*
X138625500Y-145782000D03*
X146753500Y-147814000D03*
X144721500Y-147814000D03*
X142689500Y-147814000D03*
X140657500Y-147814000D03*
X138625500Y-147814000D03*
X146753500Y-149846000D03*
X144721500Y-149846000D03*
X142689500Y-149846000D03*
X140657500Y-149846000D03*
X138625500Y-149846000D03*
%TD*%
D19*
%TO.C,C47*%
X152554874Y-145663591D03*
D22*
X150922193Y-147609344D03*
%TD*%
D23*
%TO.C,MH2*%
X150300000Y-112500000D03*
X150300000Y-130500000D03*
%TD*%
D24*
%TO.C,Q5*%
X97734833Y-85110688D03*
D25*
X100265167Y-84889312D03*
%TD*%
D16*
%TO.C,J1*%
X150675000Y-156550000D03*
D17*
X150675000Y-154010000D03*
%TD*%
D23*
%TO.C,MH2*%
X103700000Y-112500000D03*
X103700000Y-130500000D03*
%TD*%
%TO.C,*%
X138000000Y-91000000D03*
%TD*%
D26*
%TO.C,Q4*%
X156265167Y-85110688D03*
D25*
X153734833Y-84889312D03*
%TD*%
D17*
%TO.C,J9*%
X107580000Y-97000000D03*
X105040000Y-97000000D03*
D16*
X102500000Y-97000000D03*
%TD*%
D23*
%TO.C,*%
X138000000Y-113000000D03*
%TD*%
D16*
%TO.C,J6*%
X111850000Y-103000000D03*
D17*
X111850000Y-105540000D03*
X111850000Y-108080000D03*
X111850000Y-110620000D03*
%TD*%
D23*
%TO.C,*%
X116000000Y-91000000D03*
%TD*%
D16*
%TO.C,J5*%
X124250000Y-120730000D03*
D17*
X124250000Y-123270000D03*
%TD*%
D27*
%TO.C,Q6*%
X132101974Y-69101974D03*
D25*
X133898026Y-70898026D03*
%TD*%
D16*
%TO.C,J7*%
X142150000Y-103000000D03*
D17*
X142150000Y-105540000D03*
X142150000Y-108080000D03*
X142150000Y-110620000D03*
%TD*%
D28*
%TO.C,D5*%
X122101974Y-72898026D03*
D25*
X123898026Y-71101974D03*
%TD*%
D17*
%TO.C,J10*%
X107580000Y-94000000D03*
X105040000Y-94000000D03*
D16*
X102500000Y-94000000D03*
%TD*%
D24*
%TO.C,D1*%
X100515167Y-88139312D03*
D25*
X97984833Y-88360688D03*
%TD*%
D16*
%TO.C,J4*%
X129750000Y-120730000D03*
D17*
X129750000Y-123270000D03*
%TD*%
D25*
%TO.C,D3*%
X131898026Y-72898026D03*
D29*
X130101974Y-71101974D03*
%TD*%
D16*
%TO.C,J8*%
X145225000Y-139800000D03*
D17*
X145225000Y-137260000D03*
X145225000Y-134720000D03*
%TD*%
D30*
%TO.C,D2*%
X153484833Y-88139312D03*
D25*
X156015167Y-88360688D03*
%TD*%
D23*
%TO.C,*%
X116000000Y-113000000D03*
%TD*%
D25*
%TO.C,Q7*%
X120101974Y-70898026D03*
D31*
X121898026Y-69101974D03*
%TD*%
D32*
%TO.C,R21*%
X127360000Y-151927500D03*
X127360000Y-153752500D03*
%TD*%
%TO.C,R28*%
X144150000Y-103662500D03*
X144150000Y-105487500D03*
%TD*%
D33*
%TO.C,R12*%
X131137500Y-155550000D03*
X129312500Y-155550000D03*
%TD*%
D34*
%TO.C,R19*%
X144100000Y-108887500D03*
X144100000Y-107062500D03*
%TD*%
D35*
%TO.C,R29*%
X113575235Y-83045235D03*
X112284765Y-81754765D03*
%TD*%
%TO.C,R37*%
X111320235Y-84695235D03*
X110029765Y-83404765D03*
%TD*%
D33*
%TO.C,R18*%
X107237500Y-147840000D03*
X105412500Y-147840000D03*
%TD*%
D36*
%TO.C,R30*%
X109404765Y-89029765D03*
X110695235Y-90320235D03*
%TD*%
D32*
%TO.C,R17*%
X109240000Y-153047500D03*
X109240000Y-154872500D03*
%TD*%
%TO.C,R40*%
X106590000Y-153457500D03*
X106590000Y-155282500D03*
%TD*%
%TO.C,R20*%
X129330000Y-151917500D03*
X129330000Y-153742500D03*
%TD*%
%LPD*%
M02*
