%TF.GenerationSoftware,KiCad,Pcbnew,7.0.9*%
%TF.CreationDate,2024-01-15T17:26:04-08:00*%
%TF.ProjectId,mercury_2ir,6d657263-7572-4795-9f32-69722e6b6963,rev?*%
%TF.SameCoordinates,Original*%
%TF.FileFunction,Profile,NP*%
%FSLAX46Y46*%
G04 Gerber Fmt 4.6, Leading zero omitted, Abs format (unit mm)*
G04 Created by KiCad (PCBNEW 7.0.9) date 2024-01-15 17:26:04*
%MOMM*%
%LPD*%
G01*
G04 APERTURE LIST*
%TA.AperFunction,Profile*%
%ADD10C,0.100000*%
%TD*%
%TA.AperFunction,Profile*%
%ADD11C,0.050000*%
%TD*%
G04 APERTURE END LIST*
D10*
X154000000Y-95000000D02*
X165000000Y-95000000D01*
X165000000Y-158500000D02*
X165000000Y-148000000D01*
X164999999Y-95000000D02*
G75*
G03*
X89000001Y-95000000I-37999999J-1659115D01*
G01*
X100000000Y-148000000D02*
X100000000Y-95000000D01*
X154000000Y-158500000D02*
X165000000Y-158500000D01*
X154000000Y-158500000D02*
X100000000Y-158500000D01*
X154000000Y-148000000D02*
X154000000Y-95000000D01*
X135500000Y-102000000D02*
G75*
G03*
X135500000Y-102000000I-8500000J0D01*
G01*
X89000000Y-148000000D02*
X89000000Y-158500000D01*
X165000000Y-148000000D02*
X154000000Y-148000000D01*
X89000000Y-95000000D02*
X100000000Y-95000000D01*
X100000000Y-148000000D02*
X89000000Y-148000000D01*
X89000000Y-158500000D02*
X100000000Y-158500000D01*
D11*
%TO.C,Q5*%
X97702565Y-81687630D02*
G75*
G03*
X97702565Y-81687630I-999999J0D01*
G01*
X101687344Y-81339007D02*
G75*
G03*
X101687344Y-81339007I-1000000J0D01*
G01*
%TO.C,Q4*%
X154312655Y-81339007D02*
G75*
G03*
X154312655Y-81339007I-999999J0D01*
G01*
X158297434Y-81687630D02*
G75*
G03*
X158297434Y-81687630I-1000000J0D01*
G01*
%TO.C,Q6*%
X135060660Y-66110913D02*
G75*
G03*
X135060660Y-66110913I-1000000J0D01*
G01*
X137889087Y-68939340D02*
G75*
G03*
X137889087Y-68939340I-1000000J0D01*
G01*
%TO.C,Q7*%
X120939340Y-66110913D02*
G75*
G03*
X120939340Y-66110913I-1000000J0D01*
G01*
X118110913Y-68939340D02*
G75*
G03*
X118110913Y-68939340I-1000000J0D01*
G01*
%TD*%
M02*
