%TF.GenerationSoftware,KiCad,Pcbnew,7.0.9*%
%TF.CreationDate,2024-01-15T17:26:04-08:00*%
%TF.ProjectId,mercury_2ir,6d657263-7572-4795-9f32-69722e6b6963,rev?*%
%TF.SameCoordinates,Original*%
%TF.FileFunction,Soldermask,Top*%
%TF.FilePolarity,Negative*%
%FSLAX46Y46*%
G04 Gerber Fmt 4.6, Leading zero omitted, Abs format (unit mm)*
G04 Created by KiCad (PCBNEW 7.0.9) date 2024-01-15 17:26:04*
%MOMM*%
%LPD*%
G01*
G04 APERTURE LIST*
G04 Aperture macros list*
%AMRoundRect*
0 Rectangle with rounded corners*
0 $1 Rounding radius*
0 $2 $3 $4 $5 $6 $7 $8 $9 X,Y pos of 4 corners*
0 Add a 4 corners polygon primitive as box body*
4,1,4,$2,$3,$4,$5,$6,$7,$8,$9,$2,$3,0*
0 Add four circle primitives for the rounded corners*
1,1,$1+$1,$2,$3*
1,1,$1+$1,$4,$5*
1,1,$1+$1,$6,$7*
1,1,$1+$1,$8,$9*
0 Add four rect primitives between the rounded corners*
20,1,$1+$1,$2,$3,$4,$5,0*
20,1,$1+$1,$4,$5,$6,$7,0*
20,1,$1+$1,$6,$7,$8,$9,0*
20,1,$1+$1,$8,$9,$2,$3,0*%
%AMRotRect*
0 Rectangle, with rotation*
0 The origin of the aperture is its center*
0 $1 length*
0 $2 width*
0 $3 Rotation angle, in degrees counterclockwise*
0 Add horizontal line*
21,1,$1,$2,0,0,$3*%
%AMFreePoly0*
4,1,9,3.862500,-0.866500,0.737500,-0.866500,0.737500,-0.450000,-0.737500,-0.450000,-0.737500,0.450000,0.737500,0.450000,0.737500,0.866500,3.862500,0.866500,3.862500,-0.866500,3.862500,-0.866500,$1*%
G04 Aperture macros list end*
%ADD10C,0.700000*%
%ADD11O,0.900000X2.400000*%
%ADD12O,0.900000X1.700000*%
%ADD13R,1.700000X1.700000*%
%ADD14O,1.700000X1.700000*%
%ADD15R,1.600000X1.600000*%
%ADD16C,1.600000*%
%ADD17RoundRect,0.237500X-0.250000X-0.237500X0.250000X-0.237500X0.250000X0.237500X-0.250000X0.237500X0*%
%ADD18RoundRect,0.237500X-0.237500X0.300000X-0.237500X-0.300000X0.237500X-0.300000X0.237500X0.300000X0*%
%ADD19RoundRect,0.237500X-0.044194X-0.380070X0.380070X0.044194X0.044194X0.380070X-0.380070X-0.044194X0*%
%ADD20R,1.100000X4.600000*%
%ADD21C,1.524000*%
%ADD22R,10.800000X9.400000*%
%ADD23RotRect,1.600000X1.600000X50.000000*%
%ADD24C,2.184400*%
%ADD25RoundRect,0.250000X-0.548008X-0.088388X-0.088388X-0.548008X0.548008X0.088388X0.088388X0.548008X0*%
%ADD26RoundRect,0.237500X0.237500X-0.300000X0.237500X0.300000X-0.237500X0.300000X-0.237500X-0.300000X0*%
%ADD27RotRect,1.800000X1.800000X185.000000*%
%ADD28C,1.800000*%
%ADD29R,0.558800X1.460500*%
%ADD30R,2.500000X2.000000*%
%ADD31R,1.000000X0.700000*%
%ADD32R,0.600000X0.700000*%
%ADD33RoundRect,0.237500X0.300000X0.237500X-0.300000X0.237500X-0.300000X-0.237500X0.300000X-0.237500X0*%
%ADD34RoundRect,0.237500X-0.371231X0.035355X0.035355X-0.371231X0.371231X-0.035355X-0.035355X0.371231X0*%
%ADD35RoundRect,0.237500X0.044194X0.380070X-0.380070X-0.044194X-0.044194X-0.380070X0.380070X0.044194X0*%
%ADD36R,1.498600X0.889000*%
%ADD37R,0.889000X1.498600*%
%ADD38R,0.889000X0.889000*%
%ADD39RoundRect,0.237500X-0.237500X0.250000X-0.237500X-0.250000X0.237500X-0.250000X0.237500X0.250000X0*%
%ADD40RoundRect,0.150000X0.256326X0.468458X-0.468458X-0.256326X-0.256326X-0.468458X0.468458X0.256326X0*%
%ADD41RoundRect,0.237500X-0.344715X0.008839X0.008839X-0.344715X0.344715X-0.008839X-0.008839X0.344715X0*%
%ADD42RoundRect,0.150000X-0.521491X0.309359X0.309359X-0.521491X0.521491X-0.309359X-0.309359X0.521491X0*%
%ADD43RoundRect,0.237500X0.237500X-0.250000X0.237500X0.250000X-0.237500X0.250000X-0.237500X-0.250000X0*%
%ADD44RotRect,1.800000X1.800000X175.000000*%
%ADD45RoundRect,0.237500X0.344715X-0.008839X-0.008839X0.344715X-0.344715X0.008839X0.008839X-0.344715X0*%
%ADD46RoundRect,0.237500X-0.380070X0.044194X0.044194X-0.380070X0.380070X-0.044194X-0.044194X0.380070X0*%
%ADD47R,0.482600X1.371600*%
%ADD48R,3.200400X2.413000*%
%ADD49RoundRect,0.237500X0.250000X0.237500X-0.250000X0.237500X-0.250000X-0.237500X0.250000X-0.237500X0*%
%ADD50RoundRect,0.237500X0.380070X-0.044194X-0.044194X0.380070X-0.380070X0.044194X0.044194X-0.380070X0*%
%ADD51RoundRect,0.237500X-0.008839X-0.344715X0.344715X0.008839X0.008839X0.344715X-0.344715X-0.008839X0*%
%ADD52R,0.660400X1.117600*%
%ADD53RotRect,1.300000X0.900000X315.000000*%
%ADD54FreePoly0,315.000000*%
%ADD55RoundRect,0.237500X0.008839X0.344715X-0.344715X-0.008839X-0.008839X-0.344715X0.344715X0.008839X0*%
%ADD56RoundRect,0.237500X-0.035355X-0.371231X0.371231X0.035355X0.035355X0.371231X-0.371231X-0.035355X0*%
%ADD57RoundRect,0.237500X0.371231X-0.035355X-0.035355X0.371231X-0.371231X0.035355X0.035355X-0.371231X0*%
%ADD58RoundRect,0.237500X-0.300000X-0.237500X0.300000X-0.237500X0.300000X0.237500X-0.300000X0.237500X0*%
%ADD59RoundRect,0.150000X-0.587500X-0.150000X0.587500X-0.150000X0.587500X0.150000X-0.587500X0.150000X0*%
%ADD60RotRect,1.800000X1.800000X135.000000*%
%ADD61RotRect,0.599999X0.299999X135.000000*%
%ADD62RotRect,0.599999X2.250001X135.000000*%
%ADD63RotRect,1.800000X1.800000X45.000000*%
%ADD64R,0.203200X0.660400*%
%ADD65R,0.660400X0.203200*%
%ADD66R,1.600200X1.752600*%
%ADD67RotRect,1.800000X1.800000X315.000000*%
%ADD68RotRect,1.800000X1.800000X355.000000*%
%ADD69RotRect,1.800000X1.800000X225.000000*%
G04 APERTURE END LIST*
D10*
%TO.C,J3*%
X106225000Y-149415000D03*
X107075000Y-149415000D03*
X107925000Y-149415000D03*
X108775000Y-149415000D03*
X109625000Y-149415000D03*
X110475000Y-149415000D03*
X111325000Y-149415000D03*
X112175000Y-149415000D03*
X112175000Y-150765000D03*
X111325000Y-150765000D03*
X110475000Y-150765000D03*
X109625000Y-150765000D03*
X108775000Y-150765000D03*
X107925000Y-150765000D03*
X107075000Y-150765000D03*
X106225000Y-150765000D03*
D11*
X104875000Y-150395000D03*
D12*
X104875000Y-153775000D03*
D11*
X113525000Y-150395000D03*
D12*
X113525000Y-153775000D03*
%TD*%
D13*
%TO.C,J2*%
X112910000Y-137960000D03*
D14*
X112910000Y-140500000D03*
X112910000Y-143040000D03*
X112910000Y-145580000D03*
%TD*%
D15*
%TO.C,C46*%
X141420000Y-140590000D03*
D16*
X141420000Y-138090000D03*
%TD*%
D17*
%TO.C,R11*%
X115447500Y-137210000D03*
X117272500Y-137210000D03*
%TD*%
D18*
%TO.C,C26*%
X136425000Y-148287500D03*
X136425000Y-150012500D03*
%TD*%
D19*
%TO.C,C16*%
X139210120Y-83439880D03*
X140429880Y-82220120D03*
%TD*%
D20*
%TO.C,U8*%
X145737500Y-155875000D03*
D21*
X146753500Y-143750000D03*
X144721500Y-143750000D03*
X142689500Y-143750000D03*
X140657500Y-143750000D03*
X138625500Y-143750000D03*
X146753500Y-145782000D03*
X144721500Y-145782000D03*
X142689500Y-145782000D03*
X140657500Y-145782000D03*
X138625500Y-145782000D03*
D22*
X143197500Y-146725000D03*
D21*
X146753500Y-147814000D03*
X144721500Y-147814000D03*
X142689500Y-147814000D03*
X140657500Y-147814000D03*
X138625500Y-147814000D03*
X146753500Y-149846000D03*
X144721500Y-149846000D03*
X142689500Y-149846000D03*
X140657500Y-149846000D03*
X138625500Y-149846000D03*
D20*
X143197500Y-155875000D03*
X140657500Y-155875000D03*
%TD*%
D16*
%TO.C,C47*%
X152554874Y-145663591D03*
D23*
X150922193Y-147609344D03*
%TD*%
D24*
%TO.C,MH2*%
X150300000Y-112500000D03*
X150300000Y-130500000D03*
%TD*%
D25*
%TO.C,D9*%
X110800216Y-87800216D03*
X112249784Y-89249784D03*
%TD*%
D26*
%TO.C,C28*%
X126425000Y-80787500D03*
X126425000Y-79062500D03*
%TD*%
D27*
%TO.C,Q5*%
X97734833Y-85110688D03*
D28*
X100265167Y-84889312D03*
%TD*%
D26*
%TO.C,C19*%
X102375000Y-153287500D03*
X102375000Y-151562500D03*
%TD*%
D18*
%TO.C,C42*%
X139060000Y-139077500D03*
X139060000Y-140802500D03*
%TD*%
D13*
%TO.C,J1*%
X150675000Y-156550000D03*
D14*
X150675000Y-154010000D03*
%TD*%
D29*
%TO.C,U3*%
X122245000Y-133824150D03*
X123515000Y-133824150D03*
X124785000Y-133824150D03*
X126055000Y-133824150D03*
X126055000Y-128375850D03*
X124785000Y-128375850D03*
X123515000Y-128375850D03*
X122245000Y-128375850D03*
%TD*%
D30*
%TO.C,SW3*%
X163380000Y-150450000D03*
X154820000Y-150450000D03*
%TD*%
D29*
%TO.C,U1*%
X136255000Y-119450850D03*
X134985000Y-119450850D03*
X133715000Y-119450850D03*
X132445000Y-119450850D03*
X132445000Y-124899150D03*
X133715000Y-124899150D03*
X134985000Y-124899150D03*
X136255000Y-124899150D03*
%TD*%
D31*
%TO.C,D7*%
X110340000Y-144660000D03*
D32*
X108640000Y-144660000D03*
X108640000Y-146660000D03*
X110540000Y-146660000D03*
%TD*%
D25*
%TO.C,D6*%
X114965216Y-84185216D03*
X116414784Y-85634784D03*
%TD*%
D24*
%TO.C,MH2*%
X103700000Y-112500000D03*
X103700000Y-130500000D03*
%TD*%
D19*
%TO.C,C45*%
X145657800Y-79248696D03*
X146877560Y-78028936D03*
%TD*%
D33*
%TO.C,C30*%
X132562500Y-85500000D03*
X130837500Y-85500000D03*
%TD*%
D34*
%TO.C,L2*%
X110871282Y-73331282D03*
X112108718Y-74568718D03*
%TD*%
D26*
%TO.C,C25*%
X102500000Y-149232500D03*
X102500000Y-147507500D03*
%TD*%
D33*
%TO.C,C40*%
X152162500Y-151075000D03*
X150437500Y-151075000D03*
%TD*%
D19*
%TO.C,C6*%
X108821186Y-77487266D03*
X110040946Y-76267506D03*
%TD*%
D35*
%TO.C,C10*%
X139134880Y-80415120D03*
X137915120Y-81634880D03*
%TD*%
D36*
%TO.C,U9*%
X134050300Y-156859940D03*
X134050300Y-155589940D03*
X134050300Y-154319940D03*
X134050300Y-153049940D03*
X134050300Y-151779940D03*
X134050300Y-150509940D03*
X134050300Y-149239940D03*
X134050300Y-147969940D03*
X134050300Y-146699940D03*
X134050300Y-145429940D03*
X134050300Y-144159940D03*
X134050300Y-142889940D03*
X134050300Y-141619940D03*
X134050300Y-140349940D03*
D37*
X132285000Y-139100260D03*
X131015000Y-139100260D03*
X129745000Y-139100260D03*
X128475000Y-139100260D03*
X127205000Y-139100260D03*
X125935000Y-139100260D03*
X124665000Y-139100260D03*
X123395000Y-139100260D03*
X122125000Y-139100260D03*
X120855000Y-139100260D03*
X119585000Y-139100260D03*
X118315000Y-139100260D03*
D36*
X116549700Y-140349940D03*
X116549700Y-141619940D03*
X116549700Y-142889940D03*
X116549700Y-144159940D03*
X116549700Y-145429940D03*
X116549700Y-146699940D03*
X116549700Y-147969940D03*
X116549700Y-149239940D03*
X116549700Y-150509940D03*
X116549700Y-151779940D03*
X116549700Y-153049940D03*
X116549700Y-154319940D03*
X116549700Y-155589940D03*
X116549700Y-156859940D03*
D38*
X126801140Y-149140880D03*
X126801140Y-150540420D03*
X128200680Y-150540420D03*
X128200680Y-149140880D03*
X128200680Y-147741340D03*
X126801140Y-147741340D03*
X125401600Y-147741340D03*
X125401600Y-149140880D03*
X125401600Y-150540420D03*
%TD*%
D39*
%TO.C,R16*%
X123575000Y-82137500D03*
X123575000Y-83962500D03*
%TD*%
D40*
%TO.C,U6*%
X140451085Y-76617417D03*
X139779334Y-75945666D03*
X139107583Y-75273915D03*
X137498915Y-76882583D03*
X138842417Y-78226085D03*
%TD*%
D41*
%TO.C,R6*%
X125829765Y-75354765D03*
X127120235Y-76645235D03*
%TD*%
D26*
%TO.C,C35*%
X120125000Y-134762500D03*
X120125000Y-133037500D03*
%TD*%
D42*
%TO.C,Q8*%
X120133839Y-74615336D03*
X118790336Y-75958839D03*
X120787913Y-76612913D03*
%TD*%
D43*
%TO.C,R1*%
X103050000Y-89437500D03*
X103050000Y-87612500D03*
%TD*%
D33*
%TO.C,C14*%
X161262500Y-153350000D03*
X159537500Y-153350000D03*
%TD*%
D24*
%TO.C,*%
X138000000Y-91000000D03*
%TD*%
D44*
%TO.C,Q4*%
X156265167Y-85110688D03*
D28*
X153734833Y-84889312D03*
%TD*%
D45*
%TO.C,R10*%
X117420235Y-73695235D03*
X116129765Y-72404765D03*
%TD*%
D46*
%TO.C,C9*%
X142560120Y-75490120D03*
X143779880Y-76709880D03*
%TD*%
D18*
%TO.C,C23*%
X102375000Y-155212500D03*
X102375000Y-156937500D03*
%TD*%
D14*
%TO.C,J9*%
X107580000Y-97000000D03*
X105040000Y-97000000D03*
D13*
X102500000Y-97000000D03*
%TD*%
D26*
%TO.C,C29*%
X128275000Y-80737500D03*
X128275000Y-79012500D03*
%TD*%
D47*
%TO.C,U11*%
X138730000Y-128658000D03*
X137460000Y-128658000D03*
X136190000Y-128658000D03*
X134920000Y-128658000D03*
X134920000Y-133992000D03*
X136190000Y-133992000D03*
X137460000Y-133992000D03*
X138730000Y-133992000D03*
D48*
X136825000Y-131325000D03*
%TD*%
D42*
%TO.C,Q3*%
X128633839Y-72590336D03*
X127290336Y-73933839D03*
X129287913Y-74587913D03*
%TD*%
D49*
%TO.C,R3*%
X151187500Y-88475000D03*
X149362500Y-88475000D03*
%TD*%
D39*
%TO.C,R15*%
X121575000Y-82237500D03*
X121575000Y-84062500D03*
%TD*%
D50*
%TO.C,C3*%
X130459880Y-67509880D03*
X129240120Y-66290120D03*
%TD*%
D51*
%TO.C,R46*%
X146379765Y-84170235D03*
X147670235Y-82879765D03*
%TD*%
D47*
%TO.C,U7*%
X117755000Y-128558000D03*
X116485000Y-128558000D03*
X115215000Y-128558000D03*
X113945000Y-128558000D03*
X113945000Y-133892000D03*
X115215000Y-133892000D03*
X116485000Y-133892000D03*
X117755000Y-133892000D03*
D48*
X115850000Y-131225000D03*
%TD*%
D52*
%TO.C,D8*%
X108860000Y-139398200D03*
X108860000Y-142841800D03*
%TD*%
D19*
%TO.C,C4*%
X123665120Y-67309880D03*
X124884880Y-66090120D03*
%TD*%
D26*
%TO.C,C1*%
X158550000Y-85912500D03*
X158550000Y-84187500D03*
%TD*%
D24*
%TO.C,*%
X138000000Y-113000000D03*
%TD*%
D13*
%TO.C,J6*%
X111850000Y-103000000D03*
D14*
X111850000Y-105540000D03*
X111850000Y-108080000D03*
X111850000Y-110620000D03*
%TD*%
D43*
%TO.C,R8*%
X102987500Y-85387500D03*
X102987500Y-83562500D03*
%TD*%
D26*
%TO.C,C2*%
X95587500Y-86637500D03*
X95587500Y-84912500D03*
%TD*%
D18*
%TO.C,C49*%
X140600000Y-128537500D03*
X140600000Y-130262500D03*
%TD*%
D19*
%TO.C,C44*%
X147107800Y-80573696D03*
X148327560Y-79353936D03*
%TD*%
D53*
%TO.C,U5*%
X111475000Y-78000000D03*
D54*
X110476212Y-79122532D03*
D53*
X109353680Y-80121320D03*
%TD*%
D50*
%TO.C,C5*%
X107190946Y-78887266D03*
X105971186Y-77667506D03*
%TD*%
D33*
%TO.C,C31*%
X132437500Y-83250000D03*
X130712500Y-83250000D03*
%TD*%
D55*
%TO.C,R23*%
X124645235Y-73679765D03*
X123354765Y-74970235D03*
%TD*%
D24*
%TO.C,*%
X116000000Y-91000000D03*
%TD*%
D41*
%TO.C,R45*%
X141979765Y-83454765D03*
X143270235Y-84745235D03*
%TD*%
D56*
%TO.C,L3*%
X140610185Y-79003903D03*
X141847621Y-77766467D03*
%TD*%
D25*
%TO.C,D4*%
X113075216Y-85925216D03*
X114524784Y-87374784D03*
%TD*%
D57*
%TO.C,L1*%
X115618718Y-78593718D03*
X114381282Y-77356282D03*
%TD*%
D58*
%TO.C,C15*%
X155712500Y-153450000D03*
X157437500Y-153450000D03*
%TD*%
D19*
%TO.C,C7*%
X107371186Y-76012266D03*
X108590946Y-74792506D03*
%TD*%
D50*
%TO.C,C13*%
X134249880Y-80619880D03*
X133030120Y-79400120D03*
%TD*%
D26*
%TO.C,C50*%
X140575000Y-133887500D03*
X140575000Y-132162499D03*
%TD*%
D13*
%TO.C,J5*%
X124250000Y-120730000D03*
D14*
X124250000Y-123270000D03*
%TD*%
D59*
%TO.C,Q2*%
X150212500Y-90450000D03*
X150212500Y-92350000D03*
X152087500Y-91400000D03*
%TD*%
D60*
%TO.C,Q6*%
X132101974Y-69101974D03*
D28*
X133898026Y-70898026D03*
%TD*%
D50*
%TO.C,C12*%
X136429880Y-78589880D03*
X135210120Y-77370120D03*
%TD*%
D13*
%TO.C,J7*%
X142150000Y-103000000D03*
D14*
X142150000Y-105540000D03*
X142150000Y-108080000D03*
X142150000Y-110620000D03*
%TD*%
D30*
%TO.C,SW4*%
X163305000Y-156400000D03*
X154745000Y-156400000D03*
%TD*%
D61*
%TO.C,U12*%
X144575000Y-83400000D03*
X145034620Y-82940380D03*
X145494240Y-82480760D03*
X145953861Y-82021140D03*
X144610356Y-80677635D03*
X144150736Y-81137256D03*
X143691116Y-81596876D03*
X143231496Y-82056496D03*
D62*
X144592680Y-82038816D03*
%TD*%
D63*
%TO.C,D5*%
X122101974Y-72898026D03*
D28*
X123898026Y-71101974D03*
%TD*%
D26*
%TO.C,C20*%
X136375000Y-153337500D03*
X136375000Y-151612500D03*
%TD*%
D59*
%TO.C,Q1*%
X105212500Y-85100000D03*
X105212500Y-87000000D03*
X107087500Y-86050000D03*
%TD*%
D64*
%TO.C,U10*%
X126400999Y-85624000D03*
X126801001Y-85624000D03*
X127201000Y-85624000D03*
X127601000Y-85624000D03*
X128000999Y-85624000D03*
X128401001Y-85624000D03*
D65*
X128925000Y-85100001D03*
X128925000Y-84699999D03*
X128925000Y-84300000D03*
X128925000Y-83900000D03*
X128925000Y-83500001D03*
X128925000Y-83099999D03*
D64*
X128401001Y-82576000D03*
X128000999Y-82576000D03*
X127601000Y-82576000D03*
X127201000Y-82576000D03*
X126801001Y-82576000D03*
X126400999Y-82576000D03*
D65*
X125877000Y-83099999D03*
X125877000Y-83500001D03*
X125877000Y-83900000D03*
X125877000Y-84300000D03*
X125877000Y-84699999D03*
X125877000Y-85100001D03*
D66*
X127401000Y-84100000D03*
%TD*%
D39*
%TO.C,R4*%
X148125000Y-90962500D03*
X148125000Y-92787500D03*
%TD*%
%TO.C,R2*%
X105170000Y-88807500D03*
X105170000Y-90632500D03*
%TD*%
D14*
%TO.C,J10*%
X107580000Y-94000000D03*
X105040000Y-94000000D03*
D13*
X102500000Y-94000000D03*
%TD*%
D27*
%TO.C,D1*%
X100515167Y-88139312D03*
D28*
X97984833Y-88360688D03*
%TD*%
D13*
%TO.C,J4*%
X129750000Y-120730000D03*
D14*
X129750000Y-123270000D03*
%TD*%
D50*
%TO.C,C11*%
X140439880Y-73349880D03*
X139220120Y-72130120D03*
%TD*%
D51*
%TO.C,R9*%
X134584765Y-73365235D03*
X135875235Y-72074765D03*
%TD*%
D28*
%TO.C,D3*%
X131898026Y-72898026D03*
D67*
X130101974Y-71101974D03*
%TD*%
D30*
%TO.C,SW1*%
X91095000Y-156075000D03*
X99655000Y-156075000D03*
%TD*%
D26*
%TO.C,C22*%
X147725000Y-155037500D03*
X147725000Y-156762500D03*
%TD*%
D13*
%TO.C,J8*%
X145225000Y-139800000D03*
D14*
X145225000Y-137260000D03*
X145225000Y-134720000D03*
%TD*%
D55*
%TO.C,R5*%
X128395235Y-69504765D03*
X127104765Y-70795235D03*
%TD*%
D43*
%TO.C,R7*%
X150300000Y-85637500D03*
X150300000Y-83812500D03*
%TD*%
D46*
%TO.C,C43*%
X144915120Y-85540120D03*
X146134880Y-86759880D03*
%TD*%
D29*
%TO.C,U4*%
X121300000Y-119025850D03*
X120030000Y-119025850D03*
X118760000Y-119025850D03*
X117490000Y-119025850D03*
X117490000Y-124474150D03*
X118760000Y-124474150D03*
X120030000Y-124474150D03*
X121300000Y-124474150D03*
%TD*%
D30*
%TO.C,SW2*%
X91220000Y-150825000D03*
X99780000Y-150825000D03*
%TD*%
D68*
%TO.C,D2*%
X153484833Y-88139312D03*
D28*
X156015167Y-88360688D03*
%TD*%
D24*
%TO.C,*%
X116000000Y-113000000D03*
%TD*%
D29*
%TO.C,U2*%
X128840000Y-133973300D03*
X130110000Y-133973300D03*
X131380000Y-133973300D03*
X132650000Y-133973300D03*
X132650000Y-128525000D03*
X131380000Y-128525000D03*
X130110000Y-128525000D03*
X128840000Y-128525000D03*
%TD*%
D26*
%TO.C,C41*%
X108580000Y-137462500D03*
X108580000Y-135737500D03*
%TD*%
D18*
%TO.C,C21*%
X136575000Y-155387500D03*
X136575000Y-157112500D03*
%TD*%
%TO.C,C48*%
X120125000Y-129262500D03*
X120125000Y-130987500D03*
%TD*%
D28*
%TO.C,Q7*%
X120101974Y-70898026D03*
D69*
X121898026Y-69101974D03*
%TD*%
D41*
%TO.C,R22*%
X117454765Y-77279765D03*
X118745235Y-78570235D03*
%TD*%
M02*
