%TF.GenerationSoftware,KiCad,Pcbnew,7.0.9*%
%TF.CreationDate,2024-01-15T17:26:03-08:00*%
%TF.ProjectId,mercury_2ir,6d657263-7572-4795-9f32-69722e6b6963,rev?*%
%TF.SameCoordinates,Original*%
%TF.FileFunction,Drillmap*%
%TF.FilePolarity,Positive*%
%FSLAX45Y45*%
G04 Gerber Fmt 4.5, Leading zero omitted, Abs format (unit mm)*
G04 Created by KiCad (PCBNEW 7.0.9) date 2024-01-15 17:26:03*
%MOMM*%
%LPD*%
G01*
G04 APERTURE LIST*
%ADD10C,0.100000*%
%ADD11C,0.200000*%
%ADD12C,0.218440*%
G04 APERTURE END LIST*
D10*
X15400000Y-9500000D02*
X16500000Y-9500000D01*
X16500000Y-15850000D02*
X16500000Y-14800000D01*
X16500000Y-9500000D02*
G75*
G03*
X8900000Y-9500000I-3800000J-165912D01*
G01*
X10000000Y-14800000D02*
X10000000Y-9500000D01*
X15400000Y-15850000D02*
X16500000Y-15850000D01*
X15400000Y-15850000D02*
X10000000Y-15850000D01*
X15400000Y-14800000D02*
X15400000Y-9500000D01*
X13550000Y-10200000D02*
G75*
G03*
X13550000Y-10200000I-850000J0D01*
G01*
X8900000Y-14800000D02*
X8900000Y-15850000D01*
X16500000Y-14800000D02*
X15400000Y-14800000D01*
X8900000Y-9500000D02*
X10000000Y-9500000D01*
X10000000Y-14800000D02*
X8900000Y-14800000D01*
X8900000Y-15850000D02*
X10000000Y-15850000D01*
D11*
D12*
X10260780Y-11140780D02*
X10479220Y-11359220D01*
X10479220Y-11140780D02*
X10260780Y-11359220D01*
X10260780Y-12940780D02*
X10479220Y-13159220D01*
X10479220Y-12940780D02*
X10260780Y-13159220D01*
X11490780Y-8990780D02*
X11709220Y-9209220D01*
X11709220Y-8990780D02*
X11490780Y-9209220D01*
X11490780Y-11190780D02*
X11709220Y-11409220D01*
X11709220Y-11190780D02*
X11490780Y-11409220D01*
X13690780Y-8990780D02*
X13909220Y-9209220D01*
X13909220Y-8990780D02*
X13690780Y-9209220D01*
X13690780Y-11190780D02*
X13909220Y-11409220D01*
X13909220Y-11190780D02*
X13690780Y-11409220D01*
X14920780Y-11140780D02*
X15139220Y-11359220D01*
X15139220Y-11140780D02*
X14920780Y-11359220D01*
X14920780Y-12940780D02*
X15139220Y-13159220D01*
X15139220Y-12940780D02*
X14920780Y-13159220D01*
D11*
X9155777Y-16166484D02*
X9155777Y-15966484D01*
X9155777Y-15966484D02*
X9203396Y-15966484D01*
X9203396Y-15966484D02*
X9231967Y-15976008D01*
X9231967Y-15976008D02*
X9251015Y-15995055D01*
X9251015Y-15995055D02*
X9260539Y-16014103D01*
X9260539Y-16014103D02*
X9270063Y-16052198D01*
X9270063Y-16052198D02*
X9270063Y-16080769D01*
X9270063Y-16080769D02*
X9260539Y-16118865D01*
X9260539Y-16118865D02*
X9251015Y-16137912D01*
X9251015Y-16137912D02*
X9231967Y-16156960D01*
X9231967Y-16156960D02*
X9203396Y-16166484D01*
X9203396Y-16166484D02*
X9155777Y-16166484D01*
X9355777Y-16166484D02*
X9355777Y-16033150D01*
X9355777Y-16071246D02*
X9365301Y-16052198D01*
X9365301Y-16052198D02*
X9374824Y-16042674D01*
X9374824Y-16042674D02*
X9393872Y-16033150D01*
X9393872Y-16033150D02*
X9412920Y-16033150D01*
X9479586Y-16166484D02*
X9479586Y-16033150D01*
X9479586Y-15966484D02*
X9470063Y-15976008D01*
X9470063Y-15976008D02*
X9479586Y-15985531D01*
X9479586Y-15985531D02*
X9489110Y-15976008D01*
X9489110Y-15976008D02*
X9479586Y-15966484D01*
X9479586Y-15966484D02*
X9479586Y-15985531D01*
X9603396Y-16166484D02*
X9584348Y-16156960D01*
X9584348Y-16156960D02*
X9574824Y-16137912D01*
X9574824Y-16137912D02*
X9574824Y-15966484D01*
X9708158Y-16166484D02*
X9689110Y-16156960D01*
X9689110Y-16156960D02*
X9679586Y-16137912D01*
X9679586Y-16137912D02*
X9679586Y-15966484D01*
X9936729Y-16166484D02*
X9936729Y-15966484D01*
X9936729Y-15966484D02*
X10003396Y-16109341D01*
X10003396Y-16109341D02*
X10070063Y-15966484D01*
X10070063Y-15966484D02*
X10070063Y-16166484D01*
X10251015Y-16166484D02*
X10251015Y-16061722D01*
X10251015Y-16061722D02*
X10241491Y-16042674D01*
X10241491Y-16042674D02*
X10222444Y-16033150D01*
X10222444Y-16033150D02*
X10184348Y-16033150D01*
X10184348Y-16033150D02*
X10165301Y-16042674D01*
X10251015Y-16156960D02*
X10231967Y-16166484D01*
X10231967Y-16166484D02*
X10184348Y-16166484D01*
X10184348Y-16166484D02*
X10165301Y-16156960D01*
X10165301Y-16156960D02*
X10155777Y-16137912D01*
X10155777Y-16137912D02*
X10155777Y-16118865D01*
X10155777Y-16118865D02*
X10165301Y-16099817D01*
X10165301Y-16099817D02*
X10184348Y-16090293D01*
X10184348Y-16090293D02*
X10231967Y-16090293D01*
X10231967Y-16090293D02*
X10251015Y-16080769D01*
X10346253Y-16033150D02*
X10346253Y-16233150D01*
X10346253Y-16042674D02*
X10365301Y-16033150D01*
X10365301Y-16033150D02*
X10403396Y-16033150D01*
X10403396Y-16033150D02*
X10422444Y-16042674D01*
X10422444Y-16042674D02*
X10431967Y-16052198D01*
X10431967Y-16052198D02*
X10441491Y-16071246D01*
X10441491Y-16071246D02*
X10441491Y-16128388D01*
X10441491Y-16128388D02*
X10431967Y-16147436D01*
X10431967Y-16147436D02*
X10422444Y-16156960D01*
X10422444Y-16156960D02*
X10403396Y-16166484D01*
X10403396Y-16166484D02*
X10365301Y-16166484D01*
X10365301Y-16166484D02*
X10346253Y-16156960D01*
X10527205Y-16147436D02*
X10536729Y-16156960D01*
X10536729Y-16156960D02*
X10527205Y-16166484D01*
X10527205Y-16166484D02*
X10517682Y-16156960D01*
X10517682Y-16156960D02*
X10527205Y-16147436D01*
X10527205Y-16147436D02*
X10527205Y-16166484D01*
X10527205Y-16042674D02*
X10536729Y-16052198D01*
X10536729Y-16052198D02*
X10527205Y-16061722D01*
X10527205Y-16061722D02*
X10517682Y-16052198D01*
X10517682Y-16052198D02*
X10527205Y-16042674D01*
X10527205Y-16042674D02*
X10527205Y-16061722D01*
X8695000Y-16395000D02*
X8895000Y-16595000D01*
X8895000Y-16395000D02*
X8695000Y-16595000D01*
X9146253Y-16405531D02*
X9155777Y-16396008D01*
X9155777Y-16396008D02*
X9174824Y-16386484D01*
X9174824Y-16386484D02*
X9222444Y-16386484D01*
X9222444Y-16386484D02*
X9241491Y-16396008D01*
X9241491Y-16396008D02*
X9251015Y-16405531D01*
X9251015Y-16405531D02*
X9260539Y-16424579D01*
X9260539Y-16424579D02*
X9260539Y-16443627D01*
X9260539Y-16443627D02*
X9251015Y-16472198D01*
X9251015Y-16472198D02*
X9136729Y-16586484D01*
X9136729Y-16586484D02*
X9260539Y-16586484D01*
X9346253Y-16567436D02*
X9355777Y-16576960D01*
X9355777Y-16576960D02*
X9346253Y-16586484D01*
X9346253Y-16586484D02*
X9336729Y-16576960D01*
X9336729Y-16576960D02*
X9346253Y-16567436D01*
X9346253Y-16567436D02*
X9346253Y-16586484D01*
X9546253Y-16586484D02*
X9431967Y-16586484D01*
X9489110Y-16586484D02*
X9489110Y-16386484D01*
X9489110Y-16386484D02*
X9470063Y-16415055D01*
X9470063Y-16415055D02*
X9451015Y-16434103D01*
X9451015Y-16434103D02*
X9431967Y-16443627D01*
X9660539Y-16472198D02*
X9641491Y-16462674D01*
X9641491Y-16462674D02*
X9631967Y-16453150D01*
X9631967Y-16453150D02*
X9622444Y-16434103D01*
X9622444Y-16434103D02*
X9622444Y-16424579D01*
X9622444Y-16424579D02*
X9631967Y-16405531D01*
X9631967Y-16405531D02*
X9641491Y-16396008D01*
X9641491Y-16396008D02*
X9660539Y-16386484D01*
X9660539Y-16386484D02*
X9698634Y-16386484D01*
X9698634Y-16386484D02*
X9717682Y-16396008D01*
X9717682Y-16396008D02*
X9727205Y-16405531D01*
X9727205Y-16405531D02*
X9736729Y-16424579D01*
X9736729Y-16424579D02*
X9736729Y-16434103D01*
X9736729Y-16434103D02*
X9727205Y-16453150D01*
X9727205Y-16453150D02*
X9717682Y-16462674D01*
X9717682Y-16462674D02*
X9698634Y-16472198D01*
X9698634Y-16472198D02*
X9660539Y-16472198D01*
X9660539Y-16472198D02*
X9641491Y-16481722D01*
X9641491Y-16481722D02*
X9631967Y-16491246D01*
X9631967Y-16491246D02*
X9622444Y-16510293D01*
X9622444Y-16510293D02*
X9622444Y-16548388D01*
X9622444Y-16548388D02*
X9631967Y-16567436D01*
X9631967Y-16567436D02*
X9641491Y-16576960D01*
X9641491Y-16576960D02*
X9660539Y-16586484D01*
X9660539Y-16586484D02*
X9698634Y-16586484D01*
X9698634Y-16586484D02*
X9717682Y-16576960D01*
X9717682Y-16576960D02*
X9727205Y-16567436D01*
X9727205Y-16567436D02*
X9736729Y-16548388D01*
X9736729Y-16548388D02*
X9736729Y-16510293D01*
X9736729Y-16510293D02*
X9727205Y-16491246D01*
X9727205Y-16491246D02*
X9717682Y-16481722D01*
X9717682Y-16481722D02*
X9698634Y-16472198D01*
X9908158Y-16453150D02*
X9908158Y-16586484D01*
X9860539Y-16376960D02*
X9812920Y-16519817D01*
X9812920Y-16519817D02*
X9936729Y-16519817D01*
X10012920Y-16586484D02*
X10012920Y-16453150D01*
X10012920Y-16472198D02*
X10022444Y-16462674D01*
X10022444Y-16462674D02*
X10041491Y-16453150D01*
X10041491Y-16453150D02*
X10070063Y-16453150D01*
X10070063Y-16453150D02*
X10089110Y-16462674D01*
X10089110Y-16462674D02*
X10098634Y-16481722D01*
X10098634Y-16481722D02*
X10098634Y-16586484D01*
X10098634Y-16481722D02*
X10108158Y-16462674D01*
X10108158Y-16462674D02*
X10127205Y-16453150D01*
X10127205Y-16453150D02*
X10155777Y-16453150D01*
X10155777Y-16453150D02*
X10174825Y-16462674D01*
X10174825Y-16462674D02*
X10184348Y-16481722D01*
X10184348Y-16481722D02*
X10184348Y-16586484D01*
X10279586Y-16586484D02*
X10279586Y-16453150D01*
X10279586Y-16472198D02*
X10289110Y-16462674D01*
X10289110Y-16462674D02*
X10308158Y-16453150D01*
X10308158Y-16453150D02*
X10336729Y-16453150D01*
X10336729Y-16453150D02*
X10355777Y-16462674D01*
X10355777Y-16462674D02*
X10365301Y-16481722D01*
X10365301Y-16481722D02*
X10365301Y-16586484D01*
X10365301Y-16481722D02*
X10374825Y-16462674D01*
X10374825Y-16462674D02*
X10393872Y-16453150D01*
X10393872Y-16453150D02*
X10422444Y-16453150D01*
X10422444Y-16453150D02*
X10441491Y-16462674D01*
X10441491Y-16462674D02*
X10451015Y-16481722D01*
X10451015Y-16481722D02*
X10451015Y-16586484D01*
X10841491Y-16376960D02*
X10670063Y-16634103D01*
X11098634Y-16386484D02*
X11117682Y-16386484D01*
X11117682Y-16386484D02*
X11136729Y-16396008D01*
X11136729Y-16396008D02*
X11146253Y-16405531D01*
X11146253Y-16405531D02*
X11155777Y-16424579D01*
X11155777Y-16424579D02*
X11165301Y-16462674D01*
X11165301Y-16462674D02*
X11165301Y-16510293D01*
X11165301Y-16510293D02*
X11155777Y-16548388D01*
X11155777Y-16548388D02*
X11146253Y-16567436D01*
X11146253Y-16567436D02*
X11136729Y-16576960D01*
X11136729Y-16576960D02*
X11117682Y-16586484D01*
X11117682Y-16586484D02*
X11098634Y-16586484D01*
X11098634Y-16586484D02*
X11079587Y-16576960D01*
X11079587Y-16576960D02*
X11070063Y-16567436D01*
X11070063Y-16567436D02*
X11060539Y-16548388D01*
X11060539Y-16548388D02*
X11051015Y-16510293D01*
X11051015Y-16510293D02*
X11051015Y-16462674D01*
X11051015Y-16462674D02*
X11060539Y-16424579D01*
X11060539Y-16424579D02*
X11070063Y-16405531D01*
X11070063Y-16405531D02*
X11079587Y-16396008D01*
X11079587Y-16396008D02*
X11098634Y-16386484D01*
X11251015Y-16567436D02*
X11260539Y-16576960D01*
X11260539Y-16576960D02*
X11251015Y-16586484D01*
X11251015Y-16586484D02*
X11241491Y-16576960D01*
X11241491Y-16576960D02*
X11251015Y-16567436D01*
X11251015Y-16567436D02*
X11251015Y-16586484D01*
X11384348Y-16386484D02*
X11403396Y-16386484D01*
X11403396Y-16386484D02*
X11422444Y-16396008D01*
X11422444Y-16396008D02*
X11431967Y-16405531D01*
X11431967Y-16405531D02*
X11441491Y-16424579D01*
X11441491Y-16424579D02*
X11451015Y-16462674D01*
X11451015Y-16462674D02*
X11451015Y-16510293D01*
X11451015Y-16510293D02*
X11441491Y-16548388D01*
X11441491Y-16548388D02*
X11431967Y-16567436D01*
X11431967Y-16567436D02*
X11422444Y-16576960D01*
X11422444Y-16576960D02*
X11403396Y-16586484D01*
X11403396Y-16586484D02*
X11384348Y-16586484D01*
X11384348Y-16586484D02*
X11365301Y-16576960D01*
X11365301Y-16576960D02*
X11355777Y-16567436D01*
X11355777Y-16567436D02*
X11346253Y-16548388D01*
X11346253Y-16548388D02*
X11336729Y-16510293D01*
X11336729Y-16510293D02*
X11336729Y-16462674D01*
X11336729Y-16462674D02*
X11346253Y-16424579D01*
X11346253Y-16424579D02*
X11355777Y-16405531D01*
X11355777Y-16405531D02*
X11365301Y-16396008D01*
X11365301Y-16396008D02*
X11384348Y-16386484D01*
X11565301Y-16472198D02*
X11546253Y-16462674D01*
X11546253Y-16462674D02*
X11536729Y-16453150D01*
X11536729Y-16453150D02*
X11527206Y-16434103D01*
X11527206Y-16434103D02*
X11527206Y-16424579D01*
X11527206Y-16424579D02*
X11536729Y-16405531D01*
X11536729Y-16405531D02*
X11546253Y-16396008D01*
X11546253Y-16396008D02*
X11565301Y-16386484D01*
X11565301Y-16386484D02*
X11603396Y-16386484D01*
X11603396Y-16386484D02*
X11622444Y-16396008D01*
X11622444Y-16396008D02*
X11631967Y-16405531D01*
X11631967Y-16405531D02*
X11641491Y-16424579D01*
X11641491Y-16424579D02*
X11641491Y-16434103D01*
X11641491Y-16434103D02*
X11631967Y-16453150D01*
X11631967Y-16453150D02*
X11622444Y-16462674D01*
X11622444Y-16462674D02*
X11603396Y-16472198D01*
X11603396Y-16472198D02*
X11565301Y-16472198D01*
X11565301Y-16472198D02*
X11546253Y-16481722D01*
X11546253Y-16481722D02*
X11536729Y-16491246D01*
X11536729Y-16491246D02*
X11527206Y-16510293D01*
X11527206Y-16510293D02*
X11527206Y-16548388D01*
X11527206Y-16548388D02*
X11536729Y-16567436D01*
X11536729Y-16567436D02*
X11546253Y-16576960D01*
X11546253Y-16576960D02*
X11565301Y-16586484D01*
X11565301Y-16586484D02*
X11603396Y-16586484D01*
X11603396Y-16586484D02*
X11622444Y-16576960D01*
X11622444Y-16576960D02*
X11631967Y-16567436D01*
X11631967Y-16567436D02*
X11641491Y-16548388D01*
X11641491Y-16548388D02*
X11641491Y-16510293D01*
X11641491Y-16510293D02*
X11631967Y-16491246D01*
X11631967Y-16491246D02*
X11622444Y-16481722D01*
X11622444Y-16481722D02*
X11603396Y-16472198D01*
X11812920Y-16386484D02*
X11774825Y-16386484D01*
X11774825Y-16386484D02*
X11755777Y-16396008D01*
X11755777Y-16396008D02*
X11746253Y-16405531D01*
X11746253Y-16405531D02*
X11727206Y-16434103D01*
X11727206Y-16434103D02*
X11717682Y-16472198D01*
X11717682Y-16472198D02*
X11717682Y-16548388D01*
X11717682Y-16548388D02*
X11727206Y-16567436D01*
X11727206Y-16567436D02*
X11736729Y-16576960D01*
X11736729Y-16576960D02*
X11755777Y-16586484D01*
X11755777Y-16586484D02*
X11793872Y-16586484D01*
X11793872Y-16586484D02*
X11812920Y-16576960D01*
X11812920Y-16576960D02*
X11822444Y-16567436D01*
X11822444Y-16567436D02*
X11831967Y-16548388D01*
X11831967Y-16548388D02*
X11831967Y-16500769D01*
X11831967Y-16500769D02*
X11822444Y-16481722D01*
X11822444Y-16481722D02*
X11812920Y-16472198D01*
X11812920Y-16472198D02*
X11793872Y-16462674D01*
X11793872Y-16462674D02*
X11755777Y-16462674D01*
X11755777Y-16462674D02*
X11736729Y-16472198D01*
X11736729Y-16472198D02*
X11727206Y-16481722D01*
X11727206Y-16481722D02*
X11717682Y-16500769D01*
X11955777Y-16386484D02*
X11974825Y-16386484D01*
X11974825Y-16386484D02*
X11993872Y-16396008D01*
X11993872Y-16396008D02*
X12003396Y-16405531D01*
X12003396Y-16405531D02*
X12012920Y-16424579D01*
X12012920Y-16424579D02*
X12022444Y-16462674D01*
X12022444Y-16462674D02*
X12022444Y-16510293D01*
X12022444Y-16510293D02*
X12012920Y-16548388D01*
X12012920Y-16548388D02*
X12003396Y-16567436D01*
X12003396Y-16567436D02*
X11993872Y-16576960D01*
X11993872Y-16576960D02*
X11974825Y-16586484D01*
X11974825Y-16586484D02*
X11955777Y-16586484D01*
X11955777Y-16586484D02*
X11936729Y-16576960D01*
X11936729Y-16576960D02*
X11927206Y-16567436D01*
X11927206Y-16567436D02*
X11917682Y-16548388D01*
X11917682Y-16548388D02*
X11908158Y-16510293D01*
X11908158Y-16510293D02*
X11908158Y-16462674D01*
X11908158Y-16462674D02*
X11917682Y-16424579D01*
X11917682Y-16424579D02*
X11927206Y-16405531D01*
X11927206Y-16405531D02*
X11936729Y-16396008D01*
X11936729Y-16396008D02*
X11955777Y-16386484D01*
X12098634Y-16386484D02*
X12098634Y-16424579D01*
X12174825Y-16386484D02*
X12174825Y-16424579D01*
X12470063Y-16662674D02*
X12460539Y-16653150D01*
X12460539Y-16653150D02*
X12441491Y-16624579D01*
X12441491Y-16624579D02*
X12431968Y-16605531D01*
X12431968Y-16605531D02*
X12422444Y-16576960D01*
X12422444Y-16576960D02*
X12412920Y-16529341D01*
X12412920Y-16529341D02*
X12412920Y-16491246D01*
X12412920Y-16491246D02*
X12422444Y-16443627D01*
X12422444Y-16443627D02*
X12431968Y-16415055D01*
X12431968Y-16415055D02*
X12441491Y-16396008D01*
X12441491Y-16396008D02*
X12460539Y-16367436D01*
X12460539Y-16367436D02*
X12470063Y-16357912D01*
X12574825Y-16472198D02*
X12555777Y-16462674D01*
X12555777Y-16462674D02*
X12546253Y-16453150D01*
X12546253Y-16453150D02*
X12536729Y-16434103D01*
X12536729Y-16434103D02*
X12536729Y-16424579D01*
X12536729Y-16424579D02*
X12546253Y-16405531D01*
X12546253Y-16405531D02*
X12555777Y-16396008D01*
X12555777Y-16396008D02*
X12574825Y-16386484D01*
X12574825Y-16386484D02*
X12612920Y-16386484D01*
X12612920Y-16386484D02*
X12631968Y-16396008D01*
X12631968Y-16396008D02*
X12641491Y-16405531D01*
X12641491Y-16405531D02*
X12651015Y-16424579D01*
X12651015Y-16424579D02*
X12651015Y-16434103D01*
X12651015Y-16434103D02*
X12641491Y-16453150D01*
X12641491Y-16453150D02*
X12631968Y-16462674D01*
X12631968Y-16462674D02*
X12612920Y-16472198D01*
X12612920Y-16472198D02*
X12574825Y-16472198D01*
X12574825Y-16472198D02*
X12555777Y-16481722D01*
X12555777Y-16481722D02*
X12546253Y-16491246D01*
X12546253Y-16491246D02*
X12536729Y-16510293D01*
X12536729Y-16510293D02*
X12536729Y-16548388D01*
X12536729Y-16548388D02*
X12546253Y-16567436D01*
X12546253Y-16567436D02*
X12555777Y-16576960D01*
X12555777Y-16576960D02*
X12574825Y-16586484D01*
X12574825Y-16586484D02*
X12612920Y-16586484D01*
X12612920Y-16586484D02*
X12631968Y-16576960D01*
X12631968Y-16576960D02*
X12641491Y-16567436D01*
X12641491Y-16567436D02*
X12651015Y-16548388D01*
X12651015Y-16548388D02*
X12651015Y-16510293D01*
X12651015Y-16510293D02*
X12641491Y-16491246D01*
X12641491Y-16491246D02*
X12631968Y-16481722D01*
X12631968Y-16481722D02*
X12612920Y-16472198D01*
X12889110Y-16586484D02*
X12889110Y-16386484D01*
X12974825Y-16586484D02*
X12974825Y-16481722D01*
X12974825Y-16481722D02*
X12965301Y-16462674D01*
X12965301Y-16462674D02*
X12946253Y-16453150D01*
X12946253Y-16453150D02*
X12917682Y-16453150D01*
X12917682Y-16453150D02*
X12898634Y-16462674D01*
X12898634Y-16462674D02*
X12889110Y-16472198D01*
X13098634Y-16586484D02*
X13079587Y-16576960D01*
X13079587Y-16576960D02*
X13070063Y-16567436D01*
X13070063Y-16567436D02*
X13060539Y-16548388D01*
X13060539Y-16548388D02*
X13060539Y-16491246D01*
X13060539Y-16491246D02*
X13070063Y-16472198D01*
X13070063Y-16472198D02*
X13079587Y-16462674D01*
X13079587Y-16462674D02*
X13098634Y-16453150D01*
X13098634Y-16453150D02*
X13127206Y-16453150D01*
X13127206Y-16453150D02*
X13146253Y-16462674D01*
X13146253Y-16462674D02*
X13155777Y-16472198D01*
X13155777Y-16472198D02*
X13165301Y-16491246D01*
X13165301Y-16491246D02*
X13165301Y-16548388D01*
X13165301Y-16548388D02*
X13155777Y-16567436D01*
X13155777Y-16567436D02*
X13146253Y-16576960D01*
X13146253Y-16576960D02*
X13127206Y-16586484D01*
X13127206Y-16586484D02*
X13098634Y-16586484D01*
X13279587Y-16586484D02*
X13260539Y-16576960D01*
X13260539Y-16576960D02*
X13251015Y-16557912D01*
X13251015Y-16557912D02*
X13251015Y-16386484D01*
X13431968Y-16576960D02*
X13412920Y-16586484D01*
X13412920Y-16586484D02*
X13374825Y-16586484D01*
X13374825Y-16586484D02*
X13355777Y-16576960D01*
X13355777Y-16576960D02*
X13346253Y-16557912D01*
X13346253Y-16557912D02*
X13346253Y-16481722D01*
X13346253Y-16481722D02*
X13355777Y-16462674D01*
X13355777Y-16462674D02*
X13374825Y-16453150D01*
X13374825Y-16453150D02*
X13412920Y-16453150D01*
X13412920Y-16453150D02*
X13431968Y-16462674D01*
X13431968Y-16462674D02*
X13441491Y-16481722D01*
X13441491Y-16481722D02*
X13441491Y-16500769D01*
X13441491Y-16500769D02*
X13346253Y-16519817D01*
X13517682Y-16576960D02*
X13536730Y-16586484D01*
X13536730Y-16586484D02*
X13574825Y-16586484D01*
X13574825Y-16586484D02*
X13593872Y-16576960D01*
X13593872Y-16576960D02*
X13603396Y-16557912D01*
X13603396Y-16557912D02*
X13603396Y-16548388D01*
X13603396Y-16548388D02*
X13593872Y-16529341D01*
X13593872Y-16529341D02*
X13574825Y-16519817D01*
X13574825Y-16519817D02*
X13546253Y-16519817D01*
X13546253Y-16519817D02*
X13527206Y-16510293D01*
X13527206Y-16510293D02*
X13517682Y-16491246D01*
X13517682Y-16491246D02*
X13517682Y-16481722D01*
X13517682Y-16481722D02*
X13527206Y-16462674D01*
X13527206Y-16462674D02*
X13546253Y-16453150D01*
X13546253Y-16453150D02*
X13574825Y-16453150D01*
X13574825Y-16453150D02*
X13593872Y-16462674D01*
X13670063Y-16662674D02*
X13679587Y-16653150D01*
X13679587Y-16653150D02*
X13698634Y-16624579D01*
X13698634Y-16624579D02*
X13708158Y-16605531D01*
X13708158Y-16605531D02*
X13717682Y-16576960D01*
X13717682Y-16576960D02*
X13727206Y-16529341D01*
X13727206Y-16529341D02*
X13727206Y-16491246D01*
X13727206Y-16491246D02*
X13717682Y-16443627D01*
X13717682Y-16443627D02*
X13708158Y-16415055D01*
X13708158Y-16415055D02*
X13698634Y-16396008D01*
X13698634Y-16396008D02*
X13679587Y-16367436D01*
X13679587Y-16367436D02*
X13670063Y-16357912D01*
X14031968Y-16662674D02*
X14022444Y-16653150D01*
X14022444Y-16653150D02*
X14003396Y-16624579D01*
X14003396Y-16624579D02*
X13993872Y-16605531D01*
X13993872Y-16605531D02*
X13984349Y-16576960D01*
X13984349Y-16576960D02*
X13974825Y-16529341D01*
X13974825Y-16529341D02*
X13974825Y-16491246D01*
X13974825Y-16491246D02*
X13984349Y-16443627D01*
X13984349Y-16443627D02*
X13993872Y-16415055D01*
X13993872Y-16415055D02*
X14003396Y-16396008D01*
X14003396Y-16396008D02*
X14022444Y-16367436D01*
X14022444Y-16367436D02*
X14031968Y-16357912D01*
X14108158Y-16453150D02*
X14108158Y-16586484D01*
X14108158Y-16472198D02*
X14117682Y-16462674D01*
X14117682Y-16462674D02*
X14136730Y-16453150D01*
X14136730Y-16453150D02*
X14165301Y-16453150D01*
X14165301Y-16453150D02*
X14184349Y-16462674D01*
X14184349Y-16462674D02*
X14193872Y-16481722D01*
X14193872Y-16481722D02*
X14193872Y-16586484D01*
X14317682Y-16586484D02*
X14298634Y-16576960D01*
X14298634Y-16576960D02*
X14289111Y-16567436D01*
X14289111Y-16567436D02*
X14279587Y-16548388D01*
X14279587Y-16548388D02*
X14279587Y-16491246D01*
X14279587Y-16491246D02*
X14289111Y-16472198D01*
X14289111Y-16472198D02*
X14298634Y-16462674D01*
X14298634Y-16462674D02*
X14317682Y-16453150D01*
X14317682Y-16453150D02*
X14346253Y-16453150D01*
X14346253Y-16453150D02*
X14365301Y-16462674D01*
X14365301Y-16462674D02*
X14374825Y-16472198D01*
X14374825Y-16472198D02*
X14384349Y-16491246D01*
X14384349Y-16491246D02*
X14384349Y-16548388D01*
X14384349Y-16548388D02*
X14374825Y-16567436D01*
X14374825Y-16567436D02*
X14365301Y-16576960D01*
X14365301Y-16576960D02*
X14346253Y-16586484D01*
X14346253Y-16586484D02*
X14317682Y-16586484D01*
X14441492Y-16453150D02*
X14517682Y-16453150D01*
X14470063Y-16386484D02*
X14470063Y-16557912D01*
X14470063Y-16557912D02*
X14479587Y-16576960D01*
X14479587Y-16576960D02*
X14498634Y-16586484D01*
X14498634Y-16586484D02*
X14517682Y-16586484D01*
X14736730Y-16453150D02*
X14736730Y-16653150D01*
X14736730Y-16462674D02*
X14755777Y-16453150D01*
X14755777Y-16453150D02*
X14793873Y-16453150D01*
X14793873Y-16453150D02*
X14812920Y-16462674D01*
X14812920Y-16462674D02*
X14822444Y-16472198D01*
X14822444Y-16472198D02*
X14831968Y-16491246D01*
X14831968Y-16491246D02*
X14831968Y-16548388D01*
X14831968Y-16548388D02*
X14822444Y-16567436D01*
X14822444Y-16567436D02*
X14812920Y-16576960D01*
X14812920Y-16576960D02*
X14793873Y-16586484D01*
X14793873Y-16586484D02*
X14755777Y-16586484D01*
X14755777Y-16586484D02*
X14736730Y-16576960D01*
X14946253Y-16586484D02*
X14927206Y-16576960D01*
X14927206Y-16576960D02*
X14917682Y-16557912D01*
X14917682Y-16557912D02*
X14917682Y-16386484D01*
X15108158Y-16586484D02*
X15108158Y-16481722D01*
X15108158Y-16481722D02*
X15098634Y-16462674D01*
X15098634Y-16462674D02*
X15079587Y-16453150D01*
X15079587Y-16453150D02*
X15041492Y-16453150D01*
X15041492Y-16453150D02*
X15022444Y-16462674D01*
X15108158Y-16576960D02*
X15089111Y-16586484D01*
X15089111Y-16586484D02*
X15041492Y-16586484D01*
X15041492Y-16586484D02*
X15022444Y-16576960D01*
X15022444Y-16576960D02*
X15012920Y-16557912D01*
X15012920Y-16557912D02*
X15012920Y-16538865D01*
X15012920Y-16538865D02*
X15022444Y-16519817D01*
X15022444Y-16519817D02*
X15041492Y-16510293D01*
X15041492Y-16510293D02*
X15089111Y-16510293D01*
X15089111Y-16510293D02*
X15108158Y-16500769D01*
X15174825Y-16453150D02*
X15251015Y-16453150D01*
X15203396Y-16386484D02*
X15203396Y-16557912D01*
X15203396Y-16557912D02*
X15212920Y-16576960D01*
X15212920Y-16576960D02*
X15231968Y-16586484D01*
X15231968Y-16586484D02*
X15251015Y-16586484D01*
X15393873Y-16576960D02*
X15374825Y-16586484D01*
X15374825Y-16586484D02*
X15336730Y-16586484D01*
X15336730Y-16586484D02*
X15317682Y-16576960D01*
X15317682Y-16576960D02*
X15308158Y-16557912D01*
X15308158Y-16557912D02*
X15308158Y-16481722D01*
X15308158Y-16481722D02*
X15317682Y-16462674D01*
X15317682Y-16462674D02*
X15336730Y-16453150D01*
X15336730Y-16453150D02*
X15374825Y-16453150D01*
X15374825Y-16453150D02*
X15393873Y-16462674D01*
X15393873Y-16462674D02*
X15403396Y-16481722D01*
X15403396Y-16481722D02*
X15403396Y-16500769D01*
X15403396Y-16500769D02*
X15308158Y-16519817D01*
X15574825Y-16586484D02*
X15574825Y-16386484D01*
X15574825Y-16576960D02*
X15555777Y-16586484D01*
X15555777Y-16586484D02*
X15517682Y-16586484D01*
X15517682Y-16586484D02*
X15498634Y-16576960D01*
X15498634Y-16576960D02*
X15489111Y-16567436D01*
X15489111Y-16567436D02*
X15479587Y-16548388D01*
X15479587Y-16548388D02*
X15479587Y-16491246D01*
X15479587Y-16491246D02*
X15489111Y-16472198D01*
X15489111Y-16472198D02*
X15498634Y-16462674D01*
X15498634Y-16462674D02*
X15517682Y-16453150D01*
X15517682Y-16453150D02*
X15555777Y-16453150D01*
X15555777Y-16453150D02*
X15574825Y-16462674D01*
X15651015Y-16662674D02*
X15660539Y-16653150D01*
X15660539Y-16653150D02*
X15679587Y-16624579D01*
X15679587Y-16624579D02*
X15689111Y-16605531D01*
X15689111Y-16605531D02*
X15698634Y-16576960D01*
X15698634Y-16576960D02*
X15708158Y-16529341D01*
X15708158Y-16529341D02*
X15708158Y-16491246D01*
X15708158Y-16491246D02*
X15698634Y-16443627D01*
X15698634Y-16443627D02*
X15689111Y-16415055D01*
X15689111Y-16415055D02*
X15679587Y-16396008D01*
X15679587Y-16396008D02*
X15660539Y-16367436D01*
X15660539Y-16367436D02*
X15651015Y-16357912D01*
M02*
